<svg width="0" height="0" class="hidden">
  <symbol version="1.1" id="minimind-logo" xmlns="http://www.w3.org/2000/svg" xmlns:xlink="http://www.w3.org/1999/xlink" x="0px" y="0px" xml:space="preserve" viewBox="0 0 471 98">
    <path d="M73,96.4V79.3h4.8c1.4,0,2.7,0.3,3.9,1c1.1,0.7,2,1.7,2.6,2.9c0.7,1.3,1,2.7,1,4.1v1.1c0,1.5-0.3,2.9-0.9,4.2
	c-0.6,1.2-1.5,2.1-2.7,2.8c-1.2,0.7-2.6,1-4.1,1H73z M75.3,81.2v13.4h2.4c1.5,0.1,3-0.5,4-1.6c1.1-1.3,1.6-2.9,1.5-4.6v-1
	c0.1-1.6-0.4-3.2-1.3-4.6c-1-1.1-2.4-1.7-3.9-1.6L75.3,81.2z"></path>
    <path d="M110.2,88.5h-7.4v6.1h8.6v1.8h-10.9V79.3h10.7v1.8h-8.5v5.5h7.4L110.2,88.5z"></path>
    <path d="M131.2,88.8c-1.6-0.3-3-1.1-4.2-2.1c-0.8-0.8-1.3-1.8-1.3-3c0-1.3,0.5-2.5,1.6-3.3c1.2-0.9,2.7-1.4,4.2-1.3
	c1.1,0,2.2,0.2,3.2,0.7c0.9,0.4,1.6,1.1,2.1,1.9c0.5,0.8,0.7,1.7,0.7,2.6h-2.2c0.1-0.9-0.3-1.8-1-2.4c-0.8-0.6-1.8-0.9-2.8-0.8
	c-0.9,0-1.8,0.2-2.6,0.7c-0.6,0.5-0.9,1.2-0.9,2c0,0.7,0.3,1.4,0.9,1.8c0.9,0.7,1.9,1.1,3,1.3c1.2,0.3,2.3,0.7,3.3,1.3
	c0.7,0.4,1.3,1,1.8,1.7c0.4,0.7,0.6,1.5,0.6,2.2c0,1.3-0.6,2.6-1.6,3.3c-1.3,0.9-2.8,1.3-4.3,1.2c-1.1,0-2.2-0.2-3.3-0.7
	c-1-0.4-1.8-1-2.4-1.8c-0.5-0.8-0.8-1.7-0.8-2.7h2.5c0,1,0.4,1.9,1.2,2.4c0.9,0.7,1.9,1,3,0.9c1,0.1,1.9-0.2,2.7-0.7
	c0.6-0.5,1-1.2,1-2c0-0.8-0.3-1.5-0.9-1.9C133.6,89.5,132.4,89,131.2,88.8z"></path>
    <path d="M154.7,96.4h-2.2V79.3h2.2V96.4z"></path>
    <path d="M183.5,94.1c-0.6,0.8-1.5,1.5-2.4,1.9c-1.2,0.4-2.4,0.6-3.6,0.6c-1.3,0-2.6-0.3-3.7-1c-1.1-0.7-1.9-1.7-2.5-2.8
	c-0.6-1.3-0.9-2.7-0.9-4.2v-1.5c-0.2-2.2,0.5-4.3,1.8-6.1c1.2-1.5,3.1-2.3,5-2.1c1.6-0.1,3.1,0.4,4.3,1.4c1.1,1,1.8,2.4,2,3.9h-2.2
	c-0.2-2-1.9-3.6-4-3.4c0,0-0.1,0-0.1,0c-1.3-0.1-2.6,0.5-3.4,1.6c-0.9,1.4-1.3,3-1.2,4.6v1.4c-0.1,1.6,0.4,3.2,1.3,4.6
	c0.8,1.1,2.1,1.8,3.5,1.7c0.8,0,1.5-0.1,2.2-0.3c0.6-0.2,1.1-0.5,1.6-0.9v-3.8h-3.9v-1.9h6.1L183.5,94.1z"></path>
    <path d="M212.3,96.4H210l-8.6-13.1v13.1h-2.3V79.3h2.3l8.6,13.2V79.3h2.2L212.3,96.4z"></path>
    <path d="M251.1,88.8c-1.5-0.3-3-1.1-4.2-2.1c-0.9-0.7-1.4-1.8-1.3-3c0-1.3,0.6-2.6,1.6-3.3c1.2-0.9,2.7-1.4,4.2-1.3
	c1.1,0,2.1,0.2,3.1,0.7c0.9,0.4,1.6,1.1,2.2,1.9c0.5,0.8,0.7,1.7,0.7,2.6h-2.3c0-0.9-0.3-1.8-1-2.4c-0.8-0.6-1.8-0.9-2.8-0.8
	c-0.9-0.1-1.8,0.2-2.6,0.7c-0.6,0.5-0.9,1.2-0.9,2c0,0.7,0.3,1.4,0.8,1.8c0.9,0.7,1.9,1.1,3,1.3c1.2,0.3,2.3,0.8,3.3,1.3
	c0.7,0.4,1.3,1,1.8,1.7c0.4,0.7,0.6,1.5,0.6,2.2c0,1.3-0.6,2.6-1.6,3.3c-2.3,1.4-5.1,1.6-7.6,0.5c-1-0.4-1.8-1-2.4-1.8
	c-0.5-0.8-0.8-1.7-0.8-2.7h2.3c0,0.9,0.4,1.8,1.1,2.4c0.9,0.6,2,1,3.1,0.9c1,0.1,1.9-0.2,2.7-0.7c0.6-0.5,0.9-1.2,0.9-2
	c0-0.7-0.3-1.5-0.8-1.9C253.3,89.5,252.3,89.1,251.1,88.8z"></path>
    <path d="M284.1,81.2h-5.5v15.2h-2.2V81.2h-5.5v-1.8h13.2L284.1,81.2z"></path>
    <path d="M310.6,79.3v11.5c0.1,1.5-0.5,2.9-1.5,4c-1.1,1.1-2.5,1.7-4.1,1.7h-0.6c-1.6,0.1-3.2-0.5-4.5-1.5
	c-1.1-1.1-1.7-2.6-1.6-4.1V79.3h2.2v11.5c-0.1,1.1,0.3,2.1,1,2.9c1.7,1.5,4.3,1.5,6.1,0c0.7-0.8,1.1-1.8,1-2.9V79.3H310.6z"></path>
    <path d="M326.2,96.4V79.3h4.8c1.4,0,2.7,0.3,3.9,1c1.1,0.7,2.1,1.7,2.7,2.9c0.6,1.3,0.9,2.7,0.9,4.1v1.1
	c0,1.5-0.3,2.9-0.9,4.2c-0.6,1.2-1.5,2.1-2.7,2.8c-1.2,0.7-2.6,1-4,1H326.2z M328.4,81.2v13.4h2.4c1.5,0.1,3-0.5,4.1-1.6
	c1-1.3,1.5-3,1.4-4.6v-1c0.1-1.6-0.4-3.2-1.3-4.6c-1-1.1-2.4-1.7-3.9-1.6L328.4,81.2z"></path>
    <path d="M356.3,96.4H354V79.3h2.2V96.4z"></path>
    <path d="M385.5,88.4c0,1.5-0.3,3-0.8,4.4c-0.5,1.2-1.3,2.2-2.4,2.9c-1.1,0.7-2.4,1-3.6,1c-1.3,0-2.5-0.3-3.6-1
	c-1.1-0.7-1.9-1.7-2.4-2.9c-0.6-1.3-0.9-2.8-0.8-4.2v-1.2c0-1.5,0.3-3,0.8-4.4c0.5-1.2,1.4-2.2,2.4-2.9c2.2-1.4,5-1.4,7.2,0
	c1.1,0.7,1.9,1.7,2.4,2.9c0.6,1.4,0.9,2.9,0.8,4.4V88.4z M383.2,87.3c0.1-1.6-0.3-3.3-1.2-4.7c-0.8-1.1-2.1-1.7-3.4-1.6
	c-1.3,0-2.6,0.6-3.4,1.6c-0.9,1.3-1.3,2.9-1.2,4.5v1.3c-0.1,1.6,0.3,3.2,1.2,4.6c1.5,1.9,4.3,2.2,6.1,0.7c0.2-0.2,0.5-0.4,0.7-0.7
	c0.9-1.4,1.3-2.9,1.2-4.6L383.2,87.3z"></path>
    <path d="M60.2-0.2H47.5c-1,0-2,0.5-2.5,1.4L34.2,14.4c-1.1,1.4-3.1,1.6-4.4,0.5c-0.2-0.1-0.3-0.3-0.5-0.5L18.4,1.1
	c-0.6-0.8-1.5-1.3-2.4-1.4H3.3c-1.7,0-3.2,1.4-3.2,3.2v56.9c0,1.7,1.4,3.2,3.2,3.2h56.9c1.7,0,3.1-1.4,3.1-3.2V2.9
	C63.4,1.2,62-0.2,60.2-0.2C60.3-0.2,60.2-0.2,60.2-0.2z M42,46.2l-8,8.2c-1.2,1.2-3.2,1.2-4.5,0l-8.1-8.2c-1.2-1.2-1.2-3.2,0-4.4
	l8.1-8.2c1.2-1.2,3.2-1.2,4.5,0l8.1,8.2c1.2,1.1,1.3,3.1,0.1,4.3c0,0-0.1,0.1-0.1,0.1H42z"></path>
    <path d="M76-0.2h12.6c1.7,0,3.2,1.4,3.2,3.2v56.8c0,1.7-1.4,3.2-3.2,3.2H76c-1.7,0-3.2-1.4-3.2-3.2V2.9
	C72.8,1.2,74.3-0.2,76-0.2z"></path>
    <path d="M177.1-0.2h12.6c1.7,0,3.2,1.4,3.2,3.2v56.8c0,1.7-1.4,3.2-3.2,3.2h-12.6c-1.7,0-3.2-1.4-3.2-3.2V2.9
	C173.9,1.2,175.3-0.2,177.1-0.2z"></path>
    <path d="M161.2-0.2h-12.6c-1.7,0-3.2,1.4-3.2,3.2v0v19c0.1,1.7-1.2,3.2-3,3.3c-1,0.1-2-0.4-2.7-1.2L119.4,0.8
	c-0.6-0.7-1.4-1-2.3-1h-12.7c-1.7,0-3.1,1.4-3.1,3.1c0,0,0,0,0,0.1v56.9c0,1.7,1.4,3.2,3.2,3.2H117c1.7,0,3.1-1.3,3.2-3
	c0,0,0,0,0-0.1V40.7c0-1.7,1.3-3.1,3-3.2c0.9,0,1.8,0.4,2.4,1.1l20.6,23.2c0.6,0.7,1.5,1.1,2.4,1.1h12.6c1.7,0,3.2-1.4,3.2-3.2
	c0,0,0,0,0-0.1V2.9C164.4,1.2,163-0.2,161.2-0.2z"></path>
    <path d="M382.6-0.2h-12.9c-1.7,0-3.2,1.4-3.2,3.2v0v19c0,1.7-1.4,3.1-3.2,3.1c-0.9,0-1.7-0.4-2.3-1.1L340.4,0.8
	c-0.6-0.7-1.5-1.1-2.4-1.1h-12.6c-1.7,0-3.2,1.4-3.2,3.2v0v56.9c0,1.7,1.4,3.1,3.2,3.2h12.7c1.7,0,3.1-1.4,3.2-3.1V40.7
	c0-1.7,1.3-3.1,3-3.2c0.9,0,1.8,0.4,2.4,1.1l20.6,23.2c0.6,0.7,1.5,1.1,2.4,1.1h12.9c1.7,0,3.2-1.4,3.2-3.2c0,0,0,0,0-0.1V2.9
	C385.8,1.2,384.4-0.2,382.6-0.2L382.6-0.2z"></path>
    <path d="M281.3-0.2h-12.7c-1,0-2,0.5-2.5,1.4l-10.9,13.2c-1.1,1.4-3.1,1.6-4.4,0.5c-0.2-0.1-0.3-0.3-0.5-0.5L239.7,1.1
	c-0.6-0.9-1.6-1.4-2.7-1.4h-12.5c-1.7,0-3.2,1.4-3.2,3.2v0v56.9c0,1.7,1.4,3.2,3.2,3.2h56.9c1.7,0,3.1-1.4,3.2-3.2V2.9
	C284.5,1.2,283.1-0.2,281.3-0.2z M263.1,46.2l-8,8.2c-1.2,1.2-3.2,1.2-4.4,0l-8.3-8.2c-1.2-1.2-1.2-3.2,0-4.4l8.2-8.2
	c1.2-1.2,3.2-1.2,4.4,0l8.2,8.2c1.2,1.2,1.2,3.2,0,4.4H263.1z"></path>
    <path d="M297.1-0.2h12.6c1.7,0,3.2,1.4,3.2,3.2v56.8c0,1.7-1.4,3.2-3.2,3.2h-12.6c-1.7,0-3.2-1.4-3.2-3.2V2.9
	C293.9,1.2,295.4-0.2,297.1-0.2z"></path>
    <path d="M426.5-0.2h-28.4c-1.7-0.1-3.2,1.2-3.3,3c0,0.1,0,0.2,0,0.2v56.8c0,1.7,1.4,3.2,3.2,3.2h28.4
	c17.4,0,31.6-14.1,31.6-31.6c0,0,0,0,0-0.1C457.9,14,443.9-0.1,426.5-0.2z M439.1,31.3v0.2c0,8.7-7,15.7-15.7,15.7h-6.1
	c-1.7,0-3.2-1.4-3.2-3.2V18.7c0-1.7,1.4-3.2,3.2-3.2h6.1c8.6,0,15.7,7,15.7,15.6C439.1,31.2,439.1,31.2,439.1,31.3z"></path>
    <g>
      <path d="M466.7,6.3V6c0-1.1-0.8-1.8-2-1.8h-2.6v6.2h1.3V8.1h1l1,2.3h1.4l-1-2.5C466.3,7.6,466.7,7,466.7,6.3z M465.3,6
		v0.4c0,0.3-0.2,0.5-0.6,0.5h-1.3V5.5h1.3C465.3,5.5,465.3,5.8,465.3,6z"></path>
      <path d="M464.2,0.5c-3.8,0-6.8,3.1-6.8,6.8s3.1,6.8,6.8,6.8c3.8,0,6.8-3.1,6.8-6.8S467.9,0.5,464.2,0.5z M469.8,7.3
		c0,3.1-2.5,5.6-5.6,5.6c-3.1,0-5.6-2.5-5.6-5.6s2.5-5.6,5.6-5.6C467.3,1.7,469.8,4.2,469.8,7.3z"></path>
    </g>
  </symbol>
</svg>