<svg width="77" height="85" viewBox="0 0 77 85" fill="none" xmlns="http://www.w3.org/2000/svg">
<g clip-path="url(#clip0_1_2)">
<path fill-rule="evenodd" clip-rule="evenodd" d="M65.579 1.94287H70.2422L70.0957 2.76839H69.2215C68.7844 2.76839 68.4933 2.67175 68.4933 2.67175V4.17752C68.4933 4.71124 68.3474 5.24621 68.3474 5.77993C68.3474 6.31427 68.2015 6.84862 68.2015 7.14042H67.0361V5.77993C67.0361 5.24621 67.182 4.71124 67.182 4.17752C67.182 3.59454 67.3267 2.91492 67.3267 2.67175H66.7443H66.1607C65.8695 2.67175 65.5784 2.76839 65.5784 2.76839V1.94287H65.579ZM70.8239 1.94287H72.4263C72.4263 2.23405 72.5722 2.52585 72.5722 2.67113C72.5722 2.91429 72.8634 3.35075 73.0093 3.88509C73.0093 4.03099 73.1552 4.41944 73.1552 4.71062C73.2999 5.24496 73.5923 5.77931 73.5923 5.77931C73.5923 5.48813 73.8835 5.09968 74.0294 4.56534C74.174 4.17689 74.4664 3.59392 74.6117 3.20547C74.7576 2.76777 75.0488 2.23405 75.0488 1.94287H76.7977V3.59392C76.7977 4.17689 76.6518 4.95378 76.6518 5.48813V7.1398H75.4865V6.07111V4.71062C75.4865 4.27354 75.6324 3.88509 75.6324 3.59329V3.06019L74.03 7.14042H72.8634C72.8634 6.84862 72.5722 6.3149 72.5722 5.92583C72.4263 5.24621 72.1351 4.71124 72.1351 4.56596C72.1351 4.27478 71.844 3.74044 71.6981 3.2061V4.56596C71.6981 4.95441 71.5522 5.48875 71.5522 5.92583V7.14042H70.3868C70.3868 6.60607 70.5327 5.92583 70.5327 5.34347C70.5327 4.85776 70.6774 4.17752 70.6774 3.59454C70.678 3.06019 70.8239 2.52585 70.8239 1.94287V1.94287ZM14.7733 84.6591H11.6645L10.4505 80.2883H4.71866L3.50469 84.6591H0.493164L5.78735 65.3279H9.18732L14.7733 84.6591ZM9.57576 77.1309L7.53628 69.8458L5.64145 77.1309H9.57576V77.1309ZM25.9446 84.6591H23.3216V82.6682C22.8845 83.5424 22.3015 84.126 21.7672 84.3685C21.2334 84.6597 20.6498 85.0008 20.0669 85.0008C18.9982 85.0008 17.9301 84.2713 17.1526 83.0573C16.2784 81.9406 15.89 79.9984 15.89 77.7151C15.89 75.3844 16.2791 73.3431 17.0073 72.1291C17.7842 70.9638 18.9015 70.2355 20.2134 70.2355C21.2334 70.2355 22.3021 70.9638 23.2243 72.275V65.3285H25.9446V84.6591V84.6591ZM18.5617 77.3747C18.5617 78.8312 18.7563 80.1424 18.9988 80.726C19.4365 81.6002 20.0675 82.1825 20.7964 82.1825C21.476 82.1825 22.0103 81.7455 22.4474 81.2117C22.8845 80.4822 23.2243 79.2683 23.2243 77.8117C23.2243 76.2567 22.9817 74.9461 22.5447 74.2166C22.1556 73.4884 21.476 73.0026 20.7964 73.0026C20.2134 73.0026 19.679 73.4884 19.1933 74.072C18.7556 74.8002 18.5617 75.9169 18.5617 77.3747V77.3747ZM28.1787 77.3747C28.1787 76.2567 28.3239 75.0428 28.7616 73.9261C29.2474 72.7607 29.879 71.8866 30.6558 71.303C31.4814 70.672 32.5014 70.2349 33.4735 70.2349C34.9792 70.2349 36.3877 70.9632 37.3105 72.2744C38.3306 73.7309 38.8649 75.6744 38.8649 77.7145C38.8649 79.7546 38.3306 81.6002 37.3105 82.912C36.2418 84.2713 34.9792 85.0008 33.4735 85.0008C32.5507 85.0008 31.6279 84.6597 30.7537 84.1266C29.8796 83.543 29.248 82.6689 28.7623 81.6008C28.3252 80.4828 28.1793 79.0263 28.1793 77.5686V77.3747H28.1787V77.3747ZM30.8984 77.7145C30.8984 79.1722 31.0443 80.2889 31.4814 81.0172C31.9671 81.7455 32.696 82.1825 33.3762 82.1825C34.0072 82.1825 34.7361 81.7455 35.1731 81.0172C35.6589 80.2889 35.95 79.1722 35.95 77.7145C35.95 76.2567 35.6589 75.0428 35.1731 74.3145C34.7361 73.489 34.0072 73.0026 33.3762 73.0026C32.696 73.0026 32.0163 73.4884 31.6273 74.2166C31.1902 75.0421 30.8984 76.2567 30.8984 77.7145V77.7145ZM41.0017 84.6591V65.3279H43.7208V72.2744C44.4989 70.9625 45.6156 70.2349 46.6837 70.2349C47.9463 70.2349 49.0156 70.9632 49.8411 72.1285C50.6666 73.3425 51.153 75.1887 51.153 77.5686C51.153 79.9005 50.6672 81.9406 49.8411 83.0573C48.9669 84.2713 47.8989 85.0008 46.8296 85.0008C46.2472 85.0008 45.6156 84.6597 45.0806 84.3685C44.4983 84.126 43.9639 83.3977 43.6715 82.6682V84.6591H41.0017ZM43.7208 77.3747C43.7208 78.8312 43.9646 80.1424 44.2065 80.726C44.6436 81.6002 45.3731 82.1825 46.1499 82.1825C46.8296 82.1825 47.3639 81.7455 47.7524 81.2117C48.1894 80.6281 48.432 79.2683 48.432 77.8117C48.432 76.2567 48.1894 74.9461 47.7524 74.2166C47.3639 73.4884 46.683 73.0026 46.0034 73.0026C45.3724 73.0026 44.8381 73.4884 44.401 74.072C43.9646 74.8002 43.7208 75.9169 43.7208 77.3747V77.3747ZM59.4094 80.2889L62.1298 80.726C61.8373 82.1825 61.1577 83.3977 60.4787 83.9315C59.7018 84.5151 58.6325 85.0008 57.5158 85.0008C55.8648 85.0008 54.407 84.1266 53.5809 82.6689C52.9013 81.4549 52.6088 79.7546 52.6088 77.8124C52.6088 75.5291 52.9973 73.5869 53.8714 72.275C54.7456 70.9632 56.0088 70.2355 57.3687 70.2355C58.8738 70.2355 60.089 70.9638 60.9152 72.275C61.8373 73.7315 62.3717 75.9175 62.3717 78.6865H55.3304C55.3304 79.9005 55.4763 80.726 55.9627 81.357C56.3985 81.9406 56.9335 82.1825 57.5164 82.1825C58.0022 82.1825 58.4392 82.0865 58.6331 81.7455C58.8751 81.4543 59.1675 80.8719 59.4094 80.2889V80.2889ZM59.6532 76.4026C59.6532 75.3832 59.2648 74.4604 58.9723 73.9254C58.5839 73.3418 58.0015 73.0026 57.4672 73.0026C56.835 73.0026 56.2532 73.4884 55.962 74.072C55.4763 74.6543 55.3298 75.5285 55.3298 76.4026H59.6532Z" fill="black"/>
<path fill-rule="evenodd" clip-rule="evenodd" d="M0.00732422 0H23.3214L0.00732422 56.7802V0ZM39.204 0H62.8093V56.0507L39.204 0ZM31.5299 21.7111L44.4015 55.7601H36.4356L30.9469 44.9778H22.2041L31.5299 21.7111Z" fill="#CC2229"/>
</g>
<defs>
<clipPath id="clip0_1_2">
<rect width="76.806" height="85" fill="white"/>
</clipPath>
</defs>
</svg>
