<svg width="88" height="85" viewBox="0 0 88 85" fill="none" xmlns="http://www.w3.org/2000/svg">
<g clip-path="url(#clip0_1_26)">
<path d="M15.4349 0.00878906H71.7267C80.2613 0.00878906 87.1616 6.90908 87.1616 15.4436V69.5565C87.1616 78.091 80.2613 84.9913 71.7267 84.9913H15.4349C6.90029 84.9913 0 78.091 0 69.5565V15.4436C0 6.90908 6.90029 0.00878906 15.4349 0.00878906Z" fill="#470137"/>
<path d="M45.8324 22.3438L34.9372 40.3209L46.5588 59.3874C46.6314 59.5327 46.6677 59.678 46.6314 59.8232C46.5951 59.9685 46.4498 59.8595 46.2319 59.8959H37.9152C37.3342 59.8959 36.9347 59.8596 36.6805 59.4964C35.9178 57.9711 35.1188 56.482 34.3561 54.9567C33.5935 53.4677 32.7582 51.9424 31.8866 50.3807C31.015 48.8191 30.1433 47.2575 29.2717 45.6595H29.1991C28.4364 47.2211 27.6011 48.7828 26.7658 50.3444C25.9305 51.9061 25.0952 53.4677 24.2963 54.993C23.461 56.5184 22.6257 58.08 21.7904 59.569C21.6451 59.9322 21.3545 59.9685 20.9551 59.9685H12.9652C12.82 59.9685 12.711 60.0411 12.711 59.8596C12.6747 59.7143 12.711 59.569 12.7837 59.4601L24.0783 40.9382L13.0742 22.3075C12.9652 22.1622 12.9289 22.0169 13.0016 21.9443C13.0742 21.8354 13.2195 21.799 13.3647 21.799H21.6088C21.7904 21.799 21.9719 21.8354 22.1172 21.8717C22.2625 21.9443 22.3714 22.0533 22.4804 22.1985C23.1704 23.7602 23.9694 25.3218 24.8047 26.8835C25.6763 28.4451 26.5116 29.9704 27.4195 31.4958C28.2912 33.0211 29.0901 34.5464 29.8528 36.108H29.9254C30.6881 34.5101 31.4871 32.9484 32.2861 31.4231C33.085 29.8978 33.9203 28.3725 34.7556 26.8471C35.5909 25.3218 36.3899 23.7602 37.1889 22.2712C37.2252 22.1259 37.2979 21.9806 37.4068 21.908C37.5521 21.8354 37.6973 21.799 37.8789 21.8354H45.5419C45.7235 21.799 45.9051 21.908 45.9414 22.0896C45.9777 22.1259 45.9051 22.2712 45.8324 22.3438V22.3438ZM62.611 60.6585C59.9235 60.6948 57.2361 60.1501 54.8028 59.0243C52.5148 57.9711 50.6263 56.2278 49.3189 54.0851C47.9751 51.8697 47.3214 49.1096 47.3214 45.8048C47.2851 43.1173 47.9751 40.4661 49.3189 38.1418C50.6989 35.7812 52.6964 33.8201 55.0933 32.5126C57.6356 31.0963 60.6862 30.4062 64.2816 30.4062C64.4632 30.4062 64.7174 30.4062 65.0443 30.4426C65.3711 30.4789 65.7343 30.4789 66.1701 30.5152V19.0389C66.1701 18.7847 66.2791 18.6394 66.5333 18.6394H73.9057C74.0873 18.6031 74.2326 18.7484 74.2689 18.8937V53.5403C74.2689 54.1941 74.3052 54.9204 74.3415 55.7194C74.4142 56.482 74.4505 57.2084 74.4868 57.8258C74.4868 58.08 74.3778 58.2979 74.1236 58.4069C72.2351 59.2058 70.2377 59.7869 68.2039 60.1501C66.3517 60.4769 64.4995 60.6585 62.611 60.6585V60.6585ZM66.1701 53.3951V37.4155C65.8433 37.3428 65.5164 37.2702 65.1896 37.2339C64.7901 37.1976 64.3906 37.1612 63.9911 37.1612C62.5747 37.1612 61.1583 37.4518 59.8872 38.1055C58.6524 38.7229 57.5992 39.6308 56.8003 40.793C56.0013 41.9551 55.6018 43.5168 55.6018 45.4053C55.5655 46.6764 55.7834 47.9475 56.2192 49.146C56.5824 50.1265 57.1271 50.9981 57.8535 51.7245C58.5435 52.3782 59.3788 52.8866 60.323 53.1772C61.3036 53.504 62.3205 53.6493 63.3374 53.6493C63.8821 53.6493 64.3906 53.613 64.8627 53.5767C65.3348 53.613 65.7343 53.5403 66.1701 53.3951V53.3951Z" fill="#FF61F6"/>
</g>
<defs>
<clipPath id="clip0_1_26">
<rect width="87.1616" height="85" fill="white"/>
</clipPath>
</defs>
</svg>
