<svg width="88" height="85" viewBox="0 0 88 85" fill="none" xmlns="http://www.w3.org/2000/svg">
<g clip-path="url(#clip0_1_16)">
<path d="M15.438 0H71.7415C80.2778 0 87.1795 6.90171 87.1795 15.438V69.562C87.1795 78.0983 80.2778 85 71.7415 85H15.438C6.90171 85 0 78.0983 0 69.562V15.438C0 6.90171 6.90171 0 15.438 0Z" fill="#001E36"/>
<path d="M19.6152 59.609V22.2308C19.6152 21.9765 19.7242 21.8312 19.9785 21.8312C20.596 21.8312 21.1772 21.8312 22.0127 21.7949C22.8845 21.7586 23.7926 21.7586 24.7734 21.7223C25.7541 21.6859 26.8075 21.6859 27.9336 21.6496C29.0597 21.6133 30.1494 21.6133 31.2392 21.6133C34.2178 21.6133 36.6879 21.9765 38.7221 22.7393C40.5383 23.3569 42.2093 24.374 43.5896 25.718C44.752 26.8804 45.6601 28.297 46.2413 29.859C46.7862 31.3846 47.0768 32.9466 47.0768 34.5812C47.0768 37.7052 46.3503 40.2842 44.8973 42.3184C43.4443 44.3526 41.4101 45.8782 39.049 46.75C36.5789 47.6582 33.8546 47.9851 30.8759 47.9851C30.0041 47.9851 29.4229 47.9851 29.0597 47.9488C28.6964 47.9124 28.1879 47.9124 27.4977 47.9124V59.5727C27.534 59.827 27.3524 60.0449 27.0981 60.0812C27.0618 60.0812 27.0255 60.0812 26.9528 60.0812H20.0511C19.7605 60.0812 19.6152 59.9359 19.6152 59.609ZM27.534 28.8419V41.047C28.0426 41.0834 28.5148 41.1197 28.9507 41.1197H30.8759C32.2926 41.1197 33.7093 40.9017 35.0533 40.4658C36.2157 40.1389 37.2328 39.4488 38.0319 38.5406C38.7947 37.6325 39.158 36.3975 39.158 34.7992C39.1943 33.6731 38.9037 32.547 38.3225 31.5663C37.705 30.6218 36.8332 29.8953 35.7798 29.4958C34.4357 28.9509 32.9828 28.7329 31.4934 28.7693C30.549 28.7693 29.7135 28.7693 29.0234 28.8056C28.2969 28.7693 27.7883 28.8056 27.534 28.8419Z" fill="#31A8FF"/>
<path d="M69.7435 38.8312C68.6538 38.25 67.4914 37.8505 66.2563 37.5962C64.9123 37.3056 63.5683 37.124 62.188 37.124C61.4615 37.0876 60.6986 37.1966 60.0085 37.3782C59.5363 37.4872 59.1367 37.7415 58.8824 38.1047C58.7008 38.3953 58.5918 38.7586 58.5918 39.0855C58.5918 39.4124 58.7371 39.7393 58.9551 40.0299C59.282 40.4295 59.7179 40.7564 60.1901 41.0107C61.0256 41.4466 61.8974 41.8462 62.7692 42.2094C64.7307 42.8633 66.6196 43.7714 68.3632 44.8611C69.5619 45.624 70.5427 46.6411 71.2328 47.8761C71.814 49.0385 72.1046 50.3099 72.0683 51.6176C72.1046 53.3248 71.5961 55.0321 70.6516 56.4487C69.6345 57.9017 68.2179 59.0278 66.5833 59.6817C64.8034 60.4445 62.6239 60.844 60.0085 60.844C58.3375 60.844 56.7029 60.6987 55.0683 60.3718C53.7969 60.1539 52.5256 59.7543 51.3632 59.2094C51.1089 59.0641 50.9273 58.8099 50.9636 58.5193V52.1987C50.9636 52.0898 50.9999 51.9445 51.1089 51.8718C51.2179 51.7992 51.3269 51.8355 51.4358 51.9081C52.8525 52.7436 54.3418 53.3248 55.9401 53.6881C57.3204 54.0513 58.7734 54.2329 60.2264 54.2329C61.6068 54.2329 62.5875 54.0513 63.2414 53.7244C63.8226 53.4701 64.2222 52.8526 64.2222 52.1987C64.2222 51.6902 63.9316 51.218 63.3504 50.7458C62.7692 50.2735 61.5704 49.7287 59.7905 49.0385C57.938 48.3846 56.2307 47.5129 54.6324 46.4231C53.5063 45.624 52.5619 44.5705 51.8717 43.3355C51.2905 42.1731 50.9999 40.9017 51.0363 39.6304C51.0363 38.0684 51.4722 36.5791 52.2713 35.2351C53.1794 33.7821 54.5234 32.6197 56.0854 31.8932C57.7927 31.0214 59.9358 30.6218 62.5149 30.6218C64.0042 30.6218 65.5298 30.7308 67.0192 30.9487C68.1089 31.094 69.1623 31.3846 70.1431 31.7842C70.2884 31.8205 70.4337 31.9658 70.5063 32.1111C70.5427 32.2564 70.579 32.4017 70.579 32.547V38.468C70.579 38.6133 70.5063 38.7586 70.3974 38.8312C70.0704 38.9039 69.8888 38.9039 69.7435 38.8312Z" fill="#31A8FF"/>
</g>
<defs>
<clipPath id="clip0_1_16">
<rect width="87.1795" height="85" fill="white"/>
</clipPath>
</defs>
</svg>
