<svg xmlns="http://www.w3.org/2000/svg" width="87.179" height="85" viewBox="0 0 87.179 85"><path d="M15.438,0h56.3A15.425,15.425,0,0,1,87.179,15.438V69.562A15.425,15.425,0,0,1,71.741,85h-56.3A15.425,15.425,0,0,1,0,69.562V15.438A15.425,15.425,0,0,1,15.438,0Z" fill="#00005b"/><path d="M53.847,89.1H40.376l-2.752,8.546a.634.634,0,0,1-.688.507H30.128c-.4,0-.507-.217-.4-.652L41.39,64.075c.109-.362.217-.688.362-1.123a12.648,12.648,0,0,0,.217-2.354.359.359,0,0,1,.29-.4h9.379c.253,0,.435.109.471.29L65.326,97.425c.109.4,0,.579-.362.579H57.4a.547.547,0,0,1-.579-.4l-2.969-8.691ZM42.476,81.89h9.2c-.217-.76-.507-1.666-.833-2.607-.326-.978-.652-2.028-.978-3.114-.362-1.123-.688-2.209-1.05-3.331s-.688-2.173-.978-3.223c-.29-1.014-.543-1.955-.8-2.824h-.072a44.46,44.46,0,0,1-1.231,4.671c-.543,1.738-1.086,3.549-1.666,5.359-.471,1.847-1.05,3.549-1.593,5.07Z" transform="translate(-18.939 -38.275)" fill="#99f"/><path d="M152.363,101.206H140.884a7.979,7.979,0,0,0,1.123,3.223,5.742,5.742,0,0,0,2.643,2.173,11.263,11.263,0,0,0,4.635.905,21.781,21.781,0,0,0,3.766-.4,13.6,13.6,0,0,0,3.223-.833c.181-.145.29-.072.29.29v5.54a1.818,1.818,0,0,1-.072.435.846.846,0,0,1-.253.253,15.491,15.491,0,0,1-3.621,1.086,24.462,24.462,0,0,1-5.142.435,17.16,17.16,0,0,1-6.953-1.267,12.192,12.192,0,0,1-4.563-3.44,13.288,13.288,0,0,1-2.5-4.744,18.76,18.76,0,0,1,.145-11.044,14.778,14.778,0,0,1,2.716-4.961,13.124,13.124,0,0,1,4.382-3.44A13.675,13.675,0,0,1,146.75,84.3a13.081,13.081,0,0,1,5.613,1.123,9.973,9.973,0,0,1,3.8,2.9,13.256,13.256,0,0,1,2.173,4.128,14.243,14.243,0,0,1,.688,4.418c0,.869-.036,1.629-.072,2.318-.072.688-.109,1.195-.145,1.521a.541.541,0,0,1-.507.471c-.217,0-.616.036-1.195.072a17.14,17.14,0,0,1-2.1.109c-.833,0-1.7-.145-2.643-.145Zm-11.479-5.287h7.641c.941,0,1.629,0,2.064-.036a1.771,1.771,0,0,0,.833-.29v-.362a4.155,4.155,0,0,0-.217-1.34A4.793,4.793,0,0,0,146.5,90.56a5.1,5.1,0,0,0-4.816,2.752A7.506,7.506,0,0,0,140.884,95.919Z" transform="translate(-84.375 -53.644)" fill="#99f"/></svg>