<svg width="88" height="85" viewBox="0 0 88 85" fill="none" xmlns="http://www.w3.org/2000/svg">
<g clip-path="url(#clip0_1_6)">
<path d="M15.438 0H71.7415C80.2778 0 87.1795 6.90171 87.1795 15.438V69.562C87.1795 78.0983 80.2778 85 71.7415 85H15.438C6.90171 85 0 78.0983 0 69.562V15.438C0 6.90171 6.90171 0 15.438 0Z" fill="#330000"/>
<path d="M42.2458 51H28.733L25.9723 59.5363C25.8996 59.8632 25.609 60.0812 25.2821 60.0449H18.453C18.0535 60.0449 17.9445 59.8269 18.0535 59.391L29.7501 25.7179C29.859 25.3547 29.968 24.9551 30.1133 24.5192C30.2586 23.7564 30.3312 22.9573 30.3312 22.1581C30.2949 21.9765 30.4402 21.7949 30.6218 21.7585C30.6582 21.7585 30.6945 21.7585 30.7308 21.7585H40.03C40.3206 21.7585 40.4659 21.8675 40.5022 22.0491L53.7607 59.4637C53.8697 59.8632 53.7607 60.0449 53.3975 60.0449H45.8056C45.5513 60.0812 45.2971 59.8996 45.2244 59.6453L42.2458 51ZM30.8398 43.6261H40.0663C39.8483 42.8632 39.5577 41.9551 39.2308 41.0107C38.9039 40.0299 38.577 38.9765 38.2501 37.8868C37.8868 36.7607 37.5599 35.6709 37.1966 34.5449C36.8334 33.4188 36.5065 32.3654 36.2159 31.312C35.9253 30.2949 35.671 29.3504 35.4167 28.4786H35.3441C35.0171 30.0406 34.6176 31.6026 34.109 33.1645C33.5642 34.9081 33.0193 36.7244 32.4381 38.5406C31.9295 40.3932 31.3847 42.1004 30.8398 43.6261Z" fill="#FF9A00"/>
<path d="M61.6795 27.9701C60.4808 28.0064 59.3184 27.5342 58.4466 26.6987C57.6111 25.7906 57.1752 24.5919 57.2116 23.3568C57.1752 22.1218 57.6475 20.9594 58.5193 20.1239C59.3911 19.2884 60.5534 18.8525 61.7522 18.8525C63.1688 18.8525 64.2586 19.2884 65.0577 20.1239C65.8569 20.9957 66.2928 22.1581 66.2564 23.3568C66.2928 24.5919 65.8569 25.7906 64.9851 26.6987C64.1496 27.5705 62.9146 28.0427 61.6795 27.9701ZM57.6111 59.5V31.5299C57.6111 31.1666 57.7564 31.0213 58.0834 31.0213H65.2757C65.6026 31.0213 65.7479 31.203 65.7479 31.5299V59.5C65.7479 59.8995 65.6026 60.0812 65.2757 60.0812H58.156C57.7928 60.0812 57.6111 59.8632 57.6111 59.5Z" fill="#FF9A00"/>
</g>
<defs>
<clipPath id="clip0_1_6">
<rect width="87.1795" height="85" fill="white"/>
</clipPath>
</defs>
</svg>
