<svg id="Layer_1" data-name="Layer 1" xmlns="http://www.w3.org/2000/svg" viewBox="0 0 500 100"><defs><style>.cls-1{font-size:69.48px;font-family:Rubik-Light, Rubik;font-weight:300;letter-spacing:0.14em;}.cls-1,.cls-4{fill:#005efd;}.cls-2{letter-spacing:0.12em;}.cls-3{fill:#004abf;}.cls-5{fill:#bdcbd3;}</style></defs><text class="cls-1" transform="translate(-4 62.14)">B<tspan class="cls-2" x="54.96" y="0">L</tspan><tspan x="101.3" y="0">UE</tspan></text><path class="cls-3" d="M297.33,57.93Q292.08,53,291.73,44c0-1.25-.07-3.28-.07-6.11s0-5,.07-6.25q.34-8.89,5.63-13.86t14.8-5a25.52,25.52,0,0,1,10.77,2.12,17.18,17.18,0,0,1,7.12,5.8A15.07,15.07,0,0,1,332.72,29v.14a1.16,1.16,0,0,1-.45.93,1.49,1.49,0,0,1-1,.39h-6.73a1.79,1.79,0,0,1-1.26-.39,3,3,0,0,1-.69-1.35c-.69-2.87-1.9-4.9-3.61-6.08a11.82,11.82,0,0,0-6.81-1.77q-9.95,0-10.35,11.11c-.05,1.26-.07,3.18-.07,5.77s0,4.56.07,5.91q.4,11.12,10.35,11.11A11.8,11.8,0,0,0,318.93,53q2.61-1.77,3.65-6.08a3,3,0,0,1,.69-1.35,1.79,1.79,0,0,1,1.26-.38h6.73a1.52,1.52,0,0,1,1.08.41,1.16,1.16,0,0,1,.38,1,15,15,0,0,1-2.67,8.27,17.1,17.1,0,0,1-7.12,5.8,25.37,25.37,0,0,1-10.77,2.12Q302.57,62.83,297.33,57.93Z"/><path class="cls-3" d="M351.07,61.65a1.59,1.59,0,0,1-.49-1.18V15.24A1.78,1.78,0,0,1,351,14a1.6,1.6,0,0,1,1.22-.49h30.64a1.66,1.66,0,0,1,1.73,1.74V19.9a1.57,1.57,0,0,1-.48,1.21,1.78,1.78,0,0,1-1.25.45H360.1V33.72h21.26a1.66,1.66,0,0,1,1.73,1.74v4.38a1.57,1.57,0,0,1-.48,1.21,1.78,1.78,0,0,1-1.25.45H360.1V54.08h23.34a1.76,1.76,0,0,1,1.25.45,1.57,1.57,0,0,1,.49,1.22v4.72a1.57,1.57,0,0,1-.49,1.22,1.76,1.76,0,0,1-1.25.45H352.25A1.57,1.57,0,0,1,351.07,61.65Z"/><path class="cls-3" d="M399.42,61.72a1.4,1.4,0,0,1-.42-1l.14-.63,16.68-44.81a2.5,2.5,0,0,1,2.5-1.74H426a2.51,2.51,0,0,1,2.5,1.74l16.68,44.81.13.63a1.36,1.36,0,0,1-.45,1,1.43,1.43,0,0,1-1,.42h-6.19a2,2,0,0,1-2-1.32l-3.2-8.41H411.86l-3.2,8.41a2,2,0,0,1-2,1.32h-6.19A1.42,1.42,0,0,1,399.42,61.72Zm14.87-17.37H430L422.14,23Z"/><path class="cls-3" d="M462.14,61.65a1.59,1.59,0,0,1-.49-1.18V15.24A1.78,1.78,0,0,1,462.1,14a1.6,1.6,0,0,1,1.22-.49h5.42a2.21,2.21,0,0,1,2,1.19l19.87,30.84V15.24a1.78,1.78,0,0,1,.45-1.25,1.6,1.6,0,0,1,1.22-.49h6a1.7,1.7,0,0,1,1.25.49,1.68,1.68,0,0,1,.49,1.25V60.4a1.66,1.66,0,0,1-.49,1.25,1.59,1.59,0,0,1-1.18.49h-5.49A2.28,2.28,0,0,1,490.76,61L471,30.8V60.47a1.67,1.67,0,0,1-.45,1.18,1.57,1.57,0,0,1-1.22.49h-6A1.57,1.57,0,0,1,462.14,61.65Z"/><path class="cls-4" d="M237.08,69.27h4.53A1.8,1.8,0,0,0,243.28,68a12.49,12.49,0,0,1,11.63-8.26V51.23a20.1,20.1,0,0,0-19.54,15.86A1.77,1.77,0,0,0,237.08,69.27Z"/><path class="cls-3" d="M254.64,59.77A12.5,12.5,0,0,1,266.39,68a1.82,1.82,0,0,0,1.69,1.25h4.48a1.79,1.79,0,0,0,1.75-2.18,20.13,20.13,0,0,0-19.79-15.87h0v8.54Z"/><path class="cls-4" d="M254,66.49l-3.27-5.06,8.21.13-3.08,4.91A1.1,1.1,0,0,1,254,66.49Z"/><rect class="cls-4" x="241.29" y="7.49" width="27" height="14.14" rx="7.07" transform="translate(269.35 -240.23) rotate(90)"/><path class="cls-3" d="M254.42,28.06A7.09,7.09,0,0,0,261.47,21V8.13a7.09,7.09,0,0,0-7.05-7.07Z"/><ellipse class="cls-5" cx="254.77" cy="37.67" rx="20.69" ry="25.2"/><ellipse class="cls-3" cx="254.38" cy="37.67" rx="20.69" ry="25.2"/><path class="cls-3" d="M270.07,21.24a6.8,6.8,0,0,1,4.47-.15A6.59,6.59,0,0,1,279,25.76a6.73,6.73,0,0,1-.88,5.36,1.77,1.77,0,0,0,.22,2.21l3.47,3.47a1.79,1.79,0,0,0,2.69-.2,15.11,15.11,0,0,0,2.68-12.5,15,15,0,0,0-23.3-8.84A22.17,22.17,0,0,1,270.07,21.24Z"/><path class="cls-4" d="M245.29,15.26a15,15,0,0,0-20.63,21.33,1.8,1.8,0,0,0,2.71.19l3.45-3.44a1.77,1.77,0,0,0,.22-2.23,6.71,6.71,0,0,1-.87-5.35,6.59,6.59,0,0,1,4.44-4.67,6.8,6.8,0,0,1,4.47.15A22.17,22.17,0,0,1,245.29,15.26Z"/><path class="cls-4" d="M254.81,62.87c11.41,0,20.66-11.3,20.66-25.2s-9.25-25.18-20.66-25.2Z"/><path class="cls-4" d="M118.69,98.53a.58.58,0,0,1-.15-.41V82a.61.61,0,0,1,.15-.43.5.5,0,0,1,.39-.16h10a.6.6,0,0,1,.44.16.61.61,0,0,1,.16.43v.92a.56.56,0,0,1-.16.4.6.6,0,0,1-.44.16h-8.27v5.86h7.78a.57.57,0,0,1,.43.16.54.54,0,0,1,.16.41v.94a.53.53,0,0,1-.17.4.6.6,0,0,1-.42.16h-7.78v6.72a.52.52,0,0,1-.18.41.57.57,0,0,1-.42.16h-1.16A.5.5,0,0,1,118.69,98.53Z"/><path class="cls-4" d="M160.44,98.53a.58.58,0,0,1-.15-.41V82a.58.58,0,0,1,.15-.41.48.48,0,0,1,.39-.16h1.24a.57.57,0,0,1,.42.15.61.61,0,0,1,.14.42V98.12a.54.54,0,0,1-.16.41.52.52,0,0,1-.4.16h-1.24A.48.48,0,0,1,160.44,98.53Z"/><path class="cls-4" d="M194.48,98.53a.58.58,0,0,1-.15-.41V82a.61.61,0,0,1,.15-.43.48.48,0,0,1,.39-.16H196a.56.56,0,0,1,.37.1,1.81,1.81,0,0,1,.24.24l8.28,12.75V82a.57.57,0,0,1,.16-.43.54.54,0,0,1,.41-.16h1.11a.56.56,0,0,1,.43.16.57.57,0,0,1,.16.43V98.1a.6.6,0,0,1-.16.42.53.53,0,0,1-.41.17h-1.11a.6.6,0,0,1-.59-.35l-8.28-12.62v12.4a.54.54,0,0,1-.16.41.52.52,0,0,1-.4.16h-1.14A.48.48,0,0,1,194.48,98.53Z"/><path class="cls-4" d="M240,97.15a7.31,7.31,0,0,1-1.84-4.91c0-.44,0-1.17,0-2.17s0-1.76,0-2.22A7.31,7.31,0,0,1,240,82.94a6.65,6.65,0,0,1,5-1.79,8.16,8.16,0,0,1,3.73.78,5.52,5.52,0,0,1,3.16,4.73.44.44,0,0,1-.16.36.58.58,0,0,1-.38.13h-1.24a.59.59,0,0,1-.39-.12.76.76,0,0,1-.23-.42,4.16,4.16,0,0,0-1.52-2.67,5.1,5.1,0,0,0-3-.76c-2.87,0-4.36,1.59-4.47,4.79,0,.44,0,1.13,0,2s0,1.62,0,2.1q.17,4.77,4.47,4.77a5.14,5.14,0,0,0,3-.77,4.14,4.14,0,0,0,1.53-2.64.76.76,0,0,1,.23-.42.59.59,0,0,1,.39-.13h1.24a.59.59,0,0,1,.38.14.44.44,0,0,1,.16.36,5.52,5.52,0,0,1-3.16,4.73,8.16,8.16,0,0,1-3.73.78A6.65,6.65,0,0,1,240,97.15Z"/><path class="cls-4" d="M283.77,97.25a7.15,7.15,0,0,1-1.85-5.11c0-.49,0-1.19,0-2.1s0-1.59,0-2.07a7,7,0,0,1,1.92-5.09,7.79,7.79,0,0,1,9.79,0,7,7,0,0,1,1.9,5.09c0,1,.05,1.65.05,2.07s0,1.12-.05,2.1a7.11,7.11,0,0,1-1.84,5.11,8.12,8.12,0,0,1-9.92,0Zm8.13-1.56A5.37,5.37,0,0,0,293.19,92c0-1,.05-1.65.05-2s0-1-.05-2a5.4,5.4,0,0,0-1.29-3.68,4.74,4.74,0,0,0-6.33,0,5.25,5.25,0,0,0-1.28,3.68c0,.48,0,1.13,0,2s0,1.49,0,2a5.27,5.27,0,0,0,1.26,3.67,4.29,4.29,0,0,0,3.19,1.2A4.24,4.24,0,0,0,291.9,95.69Z"/><path class="cls-4" d="M326.73,98.53a.58.58,0,0,1-.15-.41V82a.61.61,0,0,1,.15-.43.51.51,0,0,1,.4-.16h6a6.71,6.71,0,0,1,4.41,1.32,4.68,4.68,0,0,1,1.6,3.84,4.94,4.94,0,0,1-.94,3.09,4.83,4.83,0,0,1-2.62,1.68l3.8,6.59a.63.63,0,0,1,.08.28.46.46,0,0,1-.15.34.47.47,0,0,1-.35.15H337.9a.91.91,0,0,1-.58-.17,1.74,1.74,0,0,1-.39-.5L333.3,91.7h-4.39v6.42a.52.52,0,0,1-.18.41.57.57,0,0,1-.42.16h-1.18A.51.51,0,0,1,326.73,98.53Zm6.33-8.86c2.48,0,3.73-1,3.73-3.13s-1.25-3.14-3.73-3.14h-4.15v6.27Z"/><path class="cls-4" d="M370.23,98.53a.58.58,0,0,1-.15-.41V82a.61.61,0,0,1,.15-.43.51.51,0,0,1,.4-.16h6.25a6.61,6.61,0,0,1,4.38,1.34,4.87,4.87,0,0,1,1.6,3.92,4.81,4.81,0,0,1-1.6,3.9,6.61,6.61,0,0,1-4.38,1.34h-4.45v6.22a.55.55,0,0,1-.57.57h-1.23A.51.51,0,0,1,370.23,98.53Zm6.52-8.63q3.74,0,3.73-3.24a3.09,3.09,0,0,0-.92-2.42,4.07,4.07,0,0,0-2.81-.84h-4.32v6.5Z"/></svg>