<svg width="107" height="85" viewBox="0 0 107 85" fill="none" xmlns="http://www.w3.org/2000/svg">
<g clip-path="url(#clip0_2_2)">
<path fill-rule="evenodd" clip-rule="evenodd" d="M22.1571 0.0102539C16.0703 0.0102539 11.5663 5.33784 11.768 11.1155C11.9615 16.6662 11.7101 23.8552 9.90031 29.7178C8.08409 35.5969 5.01464 39.3225 0 39.8007V45.1995C5.01464 45.6787 8.08409 49.4024 9.9001 55.2823C11.7101 61.145 11.9613 68.334 11.7678 73.8847C11.5661 79.6615 16.0701 84.9899 22.1579 84.9899H84.5277C90.6146 84.9899 95.1177 79.6623 94.916 73.8847C94.7225 68.334 94.9739 61.145 96.7837 55.2823C98.5999 49.4024 101.662 45.6773 106.677 45.1995V39.8007C101.662 39.3215 98.6001 35.5978 96.7837 29.7178C94.9737 23.856 94.7225 16.6662 94.916 11.1155C95.1177 5.33867 90.6146 0.0102539 84.5277 0.0102539H22.1563H22.1571ZM72.3233 52.3208C72.3233 60.2763 66.3892 65.1012 56.5414 65.1012H39.7777C39.2982 65.1012 38.8383 64.9107 38.4992 64.5716C38.1601 64.2325 37.9696 63.7726 37.9696 63.2931V21.7073C37.9696 21.2278 38.1601 20.7679 38.4992 20.4288C38.8383 20.0897 39.2982 19.8992 39.7777 19.8992H56.4459C64.6573 19.8992 70.0464 24.3471 70.0464 31.1761C70.0464 35.9693 66.421 40.2603 61.8025 41.012V41.2621C68.0897 41.9517 72.3233 46.3063 72.3233 52.3208V52.3208ZM54.7135 25.6308H45.1551V39.1321H53.2056C59.4291 39.1321 62.8607 36.626 62.8607 32.1466C62.8601 27.9487 59.9098 25.6308 54.7135 25.6308ZM45.1551 44.489V59.3677H55.0652C61.545 59.3677 64.9772 56.7677 64.9772 51.8814C64.9772 46.9951 61.4487 44.4882 54.6485 44.4882H45.1551V44.489Z" fill="#7952B3"/>
</g>
<defs>
<clipPath id="clip0_2_2">
<rect width="106.677" height="85" fill="white"/>
</clipPath>
</defs>
</svg>
