<svg width="261" height="132" viewBox="0 0 261 132" fill="none" xmlns="http://www.w3.org/2000/svg">
<path d="M22.265 43.3339V48.8188C20.7007 48.0562 19.3906 47.6749 18.3347 47.6749C16.8877 47.6749 15.646 48.0367 14.6096 48.7602C13.5732 49.4641 12.7129 50.5591 12.0285 52.0452C11.3636 53.5314 10.865 55.4183 10.5326 57.7061C10.2197 59.9744 10.0633 62.6631 10.0633 65.7722C10.0633 76.9571 12.928 82.5495 18.6573 82.5495C19.6546 82.5495 20.8571 82.2367 22.265 81.6109V87.2132C20.7985 88.0344 19.1559 88.4451 17.3374 88.4451C8.16655 88.4451 3.58113 80.9559 3.58113 65.9775C3.58113 57.8821 4.69571 51.8595 6.92487 47.9096C9.17359 43.9597 12.6053 41.9847 17.2201 41.9847C18.9213 41.9847 20.6029 42.4344 22.265 43.3339ZM27.4273 42.6006H33.4108V74.6008C33.4108 77.8664 33.7041 80.0368 34.2907 81.1123C34.8969 82.1878 36.0897 82.7255 37.8691 82.7255C39.6486 82.7255 40.8218 82.2562 41.3889 81.3176C41.9755 80.3595 42.2688 78.4139 42.2688 75.4808V42.6006H48.2523V75.4808C48.2523 80.4084 47.4995 83.7423 45.9938 85.4826C44.1949 87.4576 41.4475 88.4451 37.7518 88.4451C33.6846 88.4451 30.8199 87.1741 29.1578 84.632C28.0041 82.8917 27.4273 79.548 27.4273 74.6008V42.6006ZM55.2331 42.6006H63.5045C69.9769 42.6006 73.2131 46.619 73.2131 54.6557C73.2131 57.7257 72.7926 60.0037 71.9518 61.4898C71.111 62.976 69.6249 64.1003 67.4935 64.8629C69.9378 65.8406 71.6096 67.0921 72.5091 68.6173C73.4281 70.123 73.8877 72.3912 73.8877 75.4221C73.8877 83.7326 70.3288 87.8878 63.2112 87.8878H55.2331V42.6006ZM60.982 62.5458C63.348 62.5458 64.9906 61.9983 65.9096 60.9032C66.8287 59.7495 67.2882 57.7257 67.2882 54.8317C67.2882 49.9432 65.5283 47.4989 62.0086 47.4989H61.5393H61.2753C61.1189 47.4989 61.0211 47.5087 60.982 47.5283V62.5458ZM60.982 82.6669C63.4849 82.6669 65.2155 82.1291 66.1736 81.0537C67.1317 79.9782 67.6108 78.0326 67.6108 75.2168C67.6108 72.3228 67.1122 70.2989 66.1149 69.1453C65.1372 67.972 63.4263 67.3854 60.982 67.3854V82.6669ZM79.9885 42.6006H86.0894V87.8878H79.9885V42.6006ZM89.9904 42.6006H95.9153L99.0537 51.3706C100.286 54.8317 101.019 57.3639 101.254 58.9674C101.469 57.9701 101.703 57.0022 101.957 56.0636C102.231 55.125 102.515 54.1864 102.808 53.2478L103.219 51.9279L106.122 42.6006H112.282L103.893 64.8922L112.282 87.8878H106.122L103.131 79.2645C102.525 77.5437 102.036 75.9989 101.664 74.6302C101.293 73.2614 101.029 72.049 100.872 70.9931C100.716 72.3032 100.452 73.5547 100.08 74.7475L99.0537 77.9739L98.5258 79.6751L95.9153 87.8878H89.4625L98.0271 64.8922L89.9904 42.6006Z" fill="#05244F"/>
<path d="M130.163 33.8915L195.4 4L260.299 33.8915L195.231 65.0936L130.163 33.8915Z" fill="#F8AD00"/>
<path d="M130.163 96.2957L195.4 66.4042L260.299 96.2957L195.231 127.498L130.163 96.2957Z" fill="#F8AD00"/>
</svg>
