<svg width="85" height="85" viewBox="0 0 85 85" fill="none" xmlns="http://www.w3.org/2000/svg">
<path d="M85 42.5C85 19.0337 65.9663 0 42.5 0C19.0337 0 0 19.0337 0 42.5C0 63.7085 15.5391 81.2979 35.8594 84.4854V54.7852H25.0684V42.5H35.8594V33.1367C35.8594 22.4868 42.2095 16.6016 51.9131 16.6016C56.5615 16.6016 61.4258 17.4316 61.4258 17.4316V27.8906H56.0635C50.7842 27.8906 49.1406 31.1694 49.1406 34.5312V42.5H60.9277L59.0435 54.7852H49.1406V84.4854C69.4609 81.2979 85 63.7168 85 42.5Z" fill="#1977F3"/>
<path d="M59.0435 54.7852L60.9277 42.5H49.1406V34.5312C49.1406 31.1694 50.7842 27.8906 56.0635 27.8906H61.4258V17.4316C61.4258 17.4316 56.5615 16.6016 51.9131 16.6016C42.2095 16.6016 35.8594 22.4785 35.8594 33.1367V42.5H25.0684V54.7852H35.8594V84.4854C38.0259 84.8257 40.2422 85 42.5 85C44.7578 85 46.9741 84.8174 49.1406 84.4854V54.7852H59.0435Z" fill="#FEFEFE"/>
</svg>
