<svg width="57" height="85" viewBox="0 0 57 85" fill="none" xmlns="http://www.w3.org/2000/svg">
<g clip-path="url(#clip0_1_30)">
<path d="M14.1725 85C21.9925 85 28.3392 78.6534 28.3392 70.8334V56.6667H14.1725C6.35253 56.6667 0.00585938 63.0134 0.00585938 70.8334C0.00585938 78.6534 6.35253 85 14.1725 85Z" fill="#0ACF83"/>
<path d="M0.00585938 42.4999C0.00585938 34.6799 6.35253 28.3333 14.1725 28.3333H28.3392V56.6665H14.1725C6.35253 56.6665 0.00585938 50.3199 0.00585938 42.4999Z" fill="#A259FF"/>
<path d="M0.00585938 14.1667C0.00585938 6.34666 6.35253 0 14.1725 0H28.3392V28.3333H14.1725C6.35253 28.3333 0.00585938 21.9867 0.00585938 14.1667Z" fill="#F24E1E"/>
<path d="M28.3389 0H42.5056C50.3256 0 56.6723 6.34666 56.6723 14.1667C56.6723 21.9867 50.3256 28.3333 42.5056 28.3333H28.3389V0Z" fill="#FF7262"/>
<path d="M56.6723 42.4999C56.6723 50.3199 50.3256 56.6665 42.5056 56.6665C34.6855 56.6665 28.3389 50.3199 28.3389 42.4999C28.3389 34.6799 34.6855 28.3333 42.5056 28.3333C50.3256 28.3333 56.6723 34.6799 56.6723 42.4999Z" fill="#1ABCFE"/>
</g>
<defs>
<clipPath id="clip0_1_30">
<rect width="56.678" height="85" fill="white"/>
</clipPath>
</defs>
</svg>
