<svg width="212" height="51" viewBox="0 0 212 51" fill="none" xmlns="http://www.w3.org/2000/svg">
<path d="M1 32.7H6.6V19.4H20.9V14.3H6.6V7H22.9V1.8H1V32.7Z" fill="#2B388F"/>
<path d="M32 1.8H26.4V32.7H32V1.8Z" fill="#2B388F"/>
<path d="M56.1 23.4L42.8 1.8H36.9V32.7H42.3V11.1L55.8 32.7H61.5V1.8H56.1V23.4Z" fill="#2B388F"/>
<path d="M81.1 24.8L73.3 1.8H66.2V32.7H71.6V14.6C71.6 14.1 71.6 13.3 71.6 12.3L78.6 32.6H83.7L90.6 12.2C90.6 13.3 90.6 14 90.6 14.5V32.6H96V1.8H89L81.1 24.8Z" fill="#2B388F"/>
<path d="M113.7 1C108.5 1 104.5 2.9 101.9 6.8C99.8 9.7 98.8 13.3 98.8 17.4C98.8 21.9 100 25.8 102.4 28.8C105.1 31.9 108.9 33.5 113.6 33.5C118.7 33.5 122.6 31.7 125.4 28.1C127.7 25.1 128.9 21.2 128.9 16.7C128.9 12.5 127.9 9 125.8 6.3C123.2 2.8 119.1 1 113.7 1ZM114.1 28.4C110.7 28.4 108.3 27.4 106.8 25.4C105.3 23.3 104.5 20.7 104.5 17.7C104.5 13.9 105.4 11 107.2 9.1C109 7.2 111.2 6.2 114 6.2C116.9 6.2 119.1 7.1 120.8 9.1C122.5 11 123.3 13.7 123.3 16.9C123.3 20 122.6 22.7 121.1 25.1C119.5 27.3 117.3 28.4 114.1 28.4Z" fill="#2B388F"/>
<path d="M151.2 23.4L137.9 1.8H131.9V32.7H137.4V11.1L150.9 32.7H156.6V1.8H151.2V23.4Z" fill="#2B388F"/>
<path d="M188.3 1.8H180.4L166.9 15V1.8H161.4V32.7H166.9V22L170.7 18.4L180.9 32.7H188.1L174.8 14.5L188.3 1.8Z" fill="#2B388F"/>
<path d="M208.8 17.1C207.7 16.3 206.1 15.6 204.1 15.1L200.1 14.2C196.9 13.4 195.6 13 195.2 12.7C194.3 12.2 193.9 11.4 193.9 10.3C193.9 9.2 194.3 8.3 195.1 7.4C195.9 6.6 197.3 6.2 199.4 6.2C201.9 6.2 203.7 6.9 204.6 8.2C205.1 8.9 205.5 10 205.7 11.4L205.8 12.1H211.1V11.3C211.1 7.8 209.9 5.2 207.6 3.5C205.4 1.9 202.7 1.1 199.5 1.1C196.1 1.1 193.3 2 191.4 3.9C189.5 5.7 188.5 8.1 188.5 11C188.5 13.7 189.5 15.8 191.6 17.1C192.7 17.9 194.6 18.5 197.2 19.1L201 20C203 20.5 204.4 21 205.3 21.6C206 22.1 206.4 23 206.4 24.3C206.4 26.1 205.5 27.2 203.5 28C202.4 28.4 201.2 28.6 199.9 28.6C197 28.6 195 27.8 193.9 26.1C193.3 25.2 193 24 192.9 22.5V21.7H187.4V22.5C187.4 25.9 188.4 28.6 190.6 30.6C192.8 32.6 195.7 33.6 199.5 33.6C202.7 33.6 205.5 32.9 207.9 31.4C210.4 29.9 211.7 27.3 211.7 23.8C211.8 20.9 210.8 18.6 208.8 17.1Z" fill="#2B388F"/>
<path d="M1.89999 50H3.99999V45.9H6.69999V44.3H3.99999V42.2H8.19999V40.6H1.89999V50Z" fill="#BE1E2D"/>
<path d="M14.3 40.6H12.3V50.1H14.3V40.6Z" fill="#BE1E2D"/>
<path d="M25 46.1L21.4 40.6H18.7V50H20.8V43.4L24.9 50H27.1V40.6H25V46.1Z" fill="#BE1E2D"/>
<path d="M34.7 40.6L31.3 50.1H33.6L34.3 48.1H37.4L38.1 50.1H40.3L36.9 40.6H34.7ZM36.9 46.5H34.8L35.8 43.4L36.9 46.5Z" fill="#BE1E2D"/>
<path d="M50.5 46.1L46.9 40.6H44.2V50H46.3V43.4L50.4 50H52.6V40.6H50.5V46.1Z" fill="#BE1E2D"/>
<path d="M61.6 42.4C62.5 42.4 63.2 42.7 63.7 43.3L63.8 43.4L65.7 42.4L65.6 42.3C64.8 41.2 63.5 40.6 61.7 40.6C60.2 40.6 59 41 58.2 41.9C57.4 42.8 56.9 43.9 56.9 45.4C56.9 46.8 57.4 47.9 58.3 48.9C59.2 49.8 60.4 50.3 61.7 50.3C63.3 50.3 64.6 49.8 65.5 48.7L65.6 48.6L63.6 47.7L63.5 47.8C63 48.2 62.4 48.4 61.7 48.4C60.9 48.4 60.3 48.1 59.8 47.6C59.4 47.1 59.2 46.4 59.2 45.5C59.2 44.6 59.4 43.9 59.8 43.4C60.2 42.7 60.8 42.4 61.6 42.4Z" fill="#BE1E2D"/>
<path d="M71.8 40.6H69.8V50.1H71.8V40.6Z" fill="#BE1E2D"/>
<path d="M79.3 40.6L75.9 50.1H78.2L78.9 48.1H82L82.7 50.1H84.9L81.5 40.6H79.3ZM81.4 46.5H79.4L80.4 43.4L81.4 46.5Z" fill="#BE1E2D"/>
<path d="M90.8 40.6H88.7V50H95.4V48.2H90.8V40.6Z" fill="#BE1E2D"/>
<path d="M111.3 44.5C110.5 44.3 110 44.1 109.6 44C108.9 43.8 108.5 43.5 108.5 43.1C108.5 42.9 108.5 42.3 109.8 42.3C110.9 42.3 111.8 42.5 112.4 42.9L112.5 43L113.1 41.3L113 41.2C112.2 40.7 111.3 40.5 110.2 40.5C109.3 40.5 108.5 40.7 107.8 41C106.9 41.5 106.4 42.1 106.4 43C106.4 43.9 106.8 44.6 107.6 45.1C107.8 45.2 108.6 45.5 109.9 45.8C111 46.1 111.6 46.6 111.6 47.2C111.6 48 111 48.4 109.9 48.4C108.9 48.4 108 48.2 107.2 47.8L107.1 47.7L106.4 49.3L106.5 49.4C107.6 49.9 108.7 50.2 109.9 50.2C111 50.2 111.8 50 112.5 49.5C113.2 49 113.6 48.1 113.6 47.1C113.5 45.8 112.8 44.9 111.3 44.5Z" fill="#BE1E2D"/>
<path d="M117.4 42.4H120.4V50H122.5V42.4H125.4V40.6H117.4V42.4Z" fill="#BE1E2D"/>
<path d="M135.4 46C135.4 47.4 134.8 48.1 133.5 48.1C132.2 48.1 131.6 47.4 131.6 46V40.6H129.5V46.3C129.5 47.5 129.9 48.5 130.6 49.1C131.3 49.7 132.3 50.1 133.5 50.1C134.7 50.1 135.7 49.8 136.5 49.1C137.2 48.5 137.6 47.5 137.6 46.3V40.6H135.4V46Z" fill="#BE1E2D"/>
<path d="M148.2 41.2C147.3 40.8 146.4 40.5 145.3 40.5H142V50H145.2C147.3 50 148.9 49.3 149.9 47.9C150.4 47.1 150.7 46.2 150.7 45.2C150.7 44.6 150.6 44 150.3 43.4C149.9 42.5 149.2 41.7 148.2 41.2ZM144.1 42.4H144.9C145.9 42.4 146.8 42.6 147.4 43.1C148.1 43.6 148.5 44.4 148.5 45.4C148.5 46.4 148.2 47.1 147.4 47.6C146.8 48.1 145.9 48.3 144.9 48.3H144.1V42.4Z" fill="#BE1E2D"/>
<path d="M157 40.6H155V50.1H157V40.6Z" fill="#BE1E2D"/>
<path d="M165.9 40.5C164.4 40.5 163.3 40.9 162.5 41.8C161.7 42.7 161.3 43.8 161.3 45.3C161.3 46.7 161.7 47.9 162.5 48.8C163.3 49.7 164.5 50.1 165.9 50.1C167.4 50.1 168.5 49.7 169.3 48.8C170.1 47.9 170.5 46.7 170.5 45.3C170.5 43.8 170.1 42.6 169.3 41.8C168.5 40.9 167.4 40.5 165.9 40.5ZM165.9 42.3C167.5 42.3 168.3 43.3 168.3 45.3C168.3 47.3 167.5 48.3 165.9 48.3C164.3 48.3 163.5 47.3 163.5 45.3C163.5 43.3 164.3 42.3 165.9 42.3Z" fill="#BE1E2D"/>
<path d="M183.5 40.6H181.5V50H188.2V48.2H183.5V40.6Z" fill="#BE1E2D"/>
<path d="M194.3 40.6H192.2V50H198.9V48.2H194.3V40.6Z" fill="#BE1E2D"/>
<path d="M210 41.4C209.5 40.8 208.8 40.6 207.9 40.6H203V50.1H205.1V46.7H207.9C208.7 46.7 209.4 46.4 210 45.8C210.5 45.2 210.8 44.5 210.8 43.6C210.9 42.7 210.6 42 210 41.4ZM205.2 42.4H207.4C207.8 42.4 208.1 42.5 208.4 42.7C208.7 42.9 208.8 43.2 208.8 43.6C208.8 44 208.7 44.3 208.4 44.5C208.1 44.7 207.8 44.8 207.4 44.8H205.2V42.4Z" fill="#BE1E2D"/>
</svg>
