<svg width="85" height="85" viewBox="0 0 85 85" fill="none" xmlns="http://www.w3.org/2000/svg">
<g clip-path="url(#clip0_1_27)">
<path d="M28.9254 13.779C29.747 11.6224 30.8766 9.63697 32.554 8.02808C39.2635 1.48981 50.3547 3.13293 54.9076 11.3486C58.3308 17.5787 61.9594 23.672 65.4854 29.8337L83.1491 60.5738C88.0443 69.166 82.7384 80.0175 73.0164 81.4894C67.06 82.3795 61.4802 79.6409 58.3993 74.3008L42.8579 47.3261C42.7552 47.1207 42.6183 46.9496 42.4813 46.7784C41.9336 46.3334 41.694 45.683 41.3517 45.1011L29.9181 25.2809C28.5831 22.9531 27.9669 20.42 28.0354 17.7499C28.1381 16.3806 28.3092 15.0114 28.9254 13.779" fill="#3C8BD9"/>
<path d="M28.9254 13.779C28.6173 15.0114 28.3435 16.2437 28.275 17.5445C28.1723 20.42 28.8912 23.09 30.3289 25.589L41.5913 45.0668C41.9336 45.6488 42.2075 46.2307 42.5498 46.7784L36.3538 57.4245L27.6931 72.3495C27.5561 72.3495 27.5219 72.2811 27.4877 72.1784C27.4534 71.9045 27.5561 71.6649 27.6246 71.3911C29.0281 66.2563 27.8642 61.7035 24.3383 57.801C22.1817 55.4391 19.4431 54.104 16.2937 53.659C12.1859 53.0771 8.55728 54.1383 5.30522 56.7056C4.72328 57.1506 4.34672 57.801 3.66208 58.1434C3.52515 58.1434 3.45669 58.0749 3.42245 57.9722L8.31765 49.4485L28.6858 14.1556C28.7542 14.0186 28.8569 13.9159 28.9254 13.779" fill="#FABC04"/>
<path d="M3.55939 58.0749L5.51062 56.3291C13.829 49.7566 26.3238 54.5148 28.1381 64.9213C28.5831 67.4202 28.3435 69.8164 27.5904 72.2126C27.5561 72.418 27.5219 72.5892 27.4534 72.7946C27.1453 73.3423 26.8715 73.9242 26.5292 74.4719C23.4825 79.504 18.9981 82.0029 13.1102 81.6264C6.36642 81.1471 1.06044 76.0808 0.136171 69.3714C-0.308847 66.1194 0.341564 63.0727 2.01894 60.2657C2.36126 59.6496 2.77205 59.1019 3.1486 58.4857C3.31976 58.3488 3.2513 58.0749 3.55939 58.0749" fill="#34A852"/>
<path d="M3.5594 58.0749C3.42247 58.2118 3.42247 58.4514 3.18284 58.4857C3.14861 58.2461 3.28554 58.1091 3.42247 57.938L3.5594 58.0749Z" fill="#FABC04"/>
<path d="M27.4534 72.7946C27.3165 72.5549 27.4534 72.3838 27.5904 72.2126L27.7273 72.3495L27.4534 72.7946" fill="#E1C025"/>
</g>
<defs>
<clipPath id="clip0_1_27">
<rect width="85" height="85" fill="white"/>
</clipPath>
</defs>
</svg>
