<svg id="Layer_1" data-name="Layer 1" xmlns="http://www.w3.org/2000/svg" viewBox="0 0 500 166"><defs><style>.cls-1{fill:#a54f23;}</style></defs><path class="cls-1" d="M74.76,47,47.24,47a61.81,61.81,0,0,0-11.78-.88c-12.64,0-25.22,1.36-27.95,17.57A49,49,0,0,0,7,73v2.57A50.43,50.43,0,0,0,7.51,85,22.29,22.29,0,0,0,11.8,95.22l-1.56,1.29C4.43,101.28-.15,105.05,0,114.23c0,6.5,2.33,11,7.09,13.8-4.25,3.7-6.4,8.78-6.4,15.12,0,14.43,13.89,23,37.15,23,22.87,0,35.46-9.57,35.46-26.95,0-12.46-9.1-21.85-21.16-21.85H16.92c-4.31,0-6.23-1.82-6.23-5.88,0-3.87,3.58-6.92,6.73-9.61.62-.53,1.22-1,1.77-1.54,3.95,1.52,9,2.2,16.27,2.2,12.14,0,25.32-1.36,27.95-17.56A49.75,49.75,0,0,0,64,75.53V73a50.77,50.77,0,0,0-.53-9.42,22.62,22.62,0,0,0-2.27-7.09h6.3c3.44,0,8.91-1.68,8.91-6.19v-1.7A1.53,1.53,0,0,0,74.76,47ZM10.52,143c0-5.89,2-9.44,7-12.18h39.7c3.5,0,6.56,3.78,6.56,8.1,0,10.2-8,14.56-26.64,14.56C19.24,153.46,10.52,150,10.52,143Zm10-70.21a64.76,64.76,0,0,1,.34-9c.73-7.26,6.12-8.72,14.57-8.72S49.32,56.58,50.2,64c.33,3.69.33,8,.33,10.27s0,6.58-.33,10.41c-.87,7.28-6.28,8.74-14.74,8.74s-13.84-1.46-14.57-8.75a64.14,64.14,0,0,1-.34-8.93v-3Z"/><path class="cls-1" d="M124.61,46.1a30,30,0,0,0-19.84,7.41c-1.85-4-4.59-6.55-7.21-6.55H95.18a2,2,0,0,0-1.94,1.94v80a2,2,0,0,0,2.11,1.94h9.7a1.9,1.9,0,0,0,1.94-1.94V74.51c.84-9.48,6.86-19.08,16.78-19.08,3.1,0,10.31.53,10.31,5.38v4.76c0,3.82,2.32,5.18,4.49,5.18h6.64a2.17,2.17,0,0,0,1.94-2.12V62.51C147.14,51.78,139.35,46.1,124.61,46.1Z"/><path class="cls-1" d="M206.48,52.84c-5.73-5-14.85-6.74-21.47-6.74-11.21,0-19.52,3.71-24.59,10.87a2.14,2.14,0,0,0,0,2.91L164,63.45a2.12,2.12,0,0,0,3-.27c4.89-6.23,9.39-7.41,16-7.41,10.19,0,15.62,4.09,16.61,12.51a76.53,76.53,0,0,1,.5,10.83H180.25c-14.7,0-25.93,1.42-25.93,19.3v11c0,11.53,3.12,22.19,25.76,22.19,9.15,0,16.64-2.83,22.85-8.64,1.54,3.89,4.15,7.79,7.26,7.79h1.7a2,2,0,0,0,1.94-1.94V79.18C213.83,69.51,213.26,58.7,206.48,52.84ZM167.9,98.41c0-6.8,3.92-10,12.35-10h19.83V101c0,10.27-6.61,21.36-17.28,21.36-12,0-14.9-3-14.9-15.41Z"/><path class="cls-1" d="M270.08,46.1a32.26,32.26,0,0,0-18.48,5.82V12c0-7.5-4.19-12-8.23-12h-3.58a2.17,2.17,0,0,0-1.94,2.11V128.86A2,2,0,0,0,240,130.8h9.7a1.89,1.89,0,0,0,1.94-1.94V75.61c0-9.54,7.31-20.18,17.8-20.18C282.57,55.43,285,63.37,285,79v39.81c0,7.5,4.19,12,8.23,12h3.41a1.9,1.9,0,0,0,1.94-1.94V79C298.56,60.37,296.46,46.1,270.08,46.1Z"/><path class="cls-1" d="M371.17,52.84c-5.72-5-14.84-6.74-21.47-6.74-11.2,0-19.52,3.71-24.59,10.87a2.14,2.14,0,0,0,0,2.91l3.58,3.57a2.13,2.13,0,0,0,3-.27c4.88-6.23,9.38-7.41,16-7.41,10.19,0,15.62,4.09,16.62,12.51a78.21,78.21,0,0,1,.49,10.83H344.94c-14.7,0-25.93,1.42-25.93,19.3v11c0,11.53,3.12,22.19,25.76,22.19,9.15,0,16.65-2.83,22.85-8.64,1.54,3.89,4.15,7.79,7.26,7.79h1.7a2,2,0,0,0,1.94-1.94V79.18C378.52,69.51,378,58.7,371.17,52.84ZM332.59,98.41c0-6.8,3.92-10,12.35-10h19.83V101c0,10.27-6.6,21.36-17.28,21.36-12,0-14.9-3-14.9-15.41Z"/><path class="cls-1" d="M473.56,46.1c-7.58,0-14.71,3.38-20.21,9.55-3.88-6.5-11-9.55-22.32-9.55a26.13,26.13,0,0,0-17.88,7.24C411.48,50.14,408.86,47,406,47h-2.39a2,2,0,0,0-1.94,1.94v80a2,2,0,0,0,2.12,1.94h9.69a1.89,1.89,0,0,0,1.94-1.94l0-57.29c1.46-7.45,6.25-16.14,14.93-16.14,12.62,0,13.54,8.91,13.54,23.58v39.81c0,7.5,4.18,12,8.23,12h3.41a1.9,1.9,0,0,0,1.94-1.94V75.44c0-9.66,6.19-20,15.41-20,12.63,0,13.54,8.91,13.54,23.58v39.81c0,7.5,4.19,12,8.23,12h3.41a1.9,1.9,0,0,0,1.94-1.94V79C500,60.37,498.05,46.1,473.56,46.1Z"/><rect class="cls-1" x="93.24" y="153.46" width="12.85" height="12.85" rx="2.13"/><rect class="cls-1" x="200.98" y="153.46" width="12.85" height="12.85" rx="2.13"/><rect class="cls-1" x="237.85" y="153.46" width="12.85" height="12.85" rx="2.13"/><rect class="cls-1" x="285.71" y="153.46" width="12.85" height="12.85" rx="2.13"/><rect class="cls-1" x="365.67" y="153.46" width="12.85" height="12.85" rx="2.13"/><rect class="cls-1" x="401.72" y="153.46" width="12.85" height="12.85" rx="2.13"/><rect class="cls-1" x="444.42" y="153.46" width="12.85" height="12.85" rx="2.13"/><rect class="cls-1" x="487.15" y="153.46" width="12.85" height="12.85" rx="2.13"/></svg>