<svg width="246" height="57" viewBox="0 0 246 57" fill="none" xmlns="http://www.w3.org/2000/svg">
<path d="M203.1 7.3C198.7 7.3 195.1 10.9 195.1 15.3V23.2C195.1 23.4 195.2 28.2 200.1 31.6C202.5 31.9 203.1 31.9 206 31.6C210.9 28.1 211 23.4 211 23.2V15.3C211.1 10.9 207.5 7.3 203.1 7.3Z" fill="#F8C800"/>
<path d="M203.1 56.3C207.5 56.3 211.1 52.7 211.1 48.3V40.4C211.1 40.2 211 35.4 206.1 32C203.7 31.7 203.1 31.7 200.2 32C195.3 35.5 195.2 40.2 195.2 40.4V48.3C195.1 52.7 198.7 56.3 203.1 56.3Z" fill="#F8C800"/>
<path d="M203.1 7.3C198.7 7.3 195.1 10.9 195.1 15.3V23.2C195.1 23.4 195.2 28.2 200.1 31.6C195.1 35.4 195.1 40.3 195.1 40.5V48.4C195.1 52.8 198.7 56.4 203.1 56.4C207.5 56.4 211.1 52.8 211.1 48.4V40.5C211.1 40.3 211 35.4 206.1 31.6C211 28.1 211.1 23.4 211.1 23.2V15.3C211.1 10.9 207.5 7.3 203.1 7.3ZM207.9 40.5V48.4C207.9 51.1 205.7 53.3 203 53.3C200.3 53.3 198.1 51.1 198.1 48.4V40.6C198.1 40.4 198.2 36.3 203 33.4C207.8 36.3 207.9 40.3 207.9 40.5ZM207.9 23.1C207.9 23.3 207.7 27.2 203 29.7C198.3 27.1 198.1 23.2 198.1 23.1V15.2C198.1 12.5 200.3 10.3 203 10.3C205.7 10.3 207.9 12.5 207.9 15.2V23.1Z" fill="#305AA5"/>
<path d="M142.2 8.5H132.2C132 8.5 131.9 8.6 131.9 8.8V24.2C131.9 24.4 132 24.5 132.2 24.5H134.7C134.9 24.5 135 24.4 135 24.2V17.8H141.6C141.8 17.8 141.9 17.7 141.9 17.5V15.7C141.9 15.5 141.8 15.4 141.6 15.4H135V11.1H142.2C142.4 11.1 142.5 11 142.5 10.8V8.9C142.5 8.7 142.4 8.5 142.2 8.5Z" fill="#305AA5"/>
<path d="M150.5 8.5H148C147.8 8.5 147.7 8.6 147.7 8.8V24.2C147.7 24.4 147.8 24.5 148 24.5H150.5C150.7 24.5 150.8 24.4 150.8 24.2V8.9C150.8 8.7 150.7 8.5 150.5 8.5Z" fill="#305AA5"/>
<path d="M171.3 8.5H168.9C168.7 8.5 168.6 8.6 168.6 8.8V17.4C168.6 18 168.6 18.6 168.6 19.1C168.6 19.3 168.6 19.5 168.6 19.7C168.6 19.6 168.5 19.6 168.5 19.5C168.2 19.1 167.9 18.7 167.7 18.4L160 8.6C159.9 8.5 159.8 8.5 159.7 8.5H157.5C157.3 8.5 157.2 8.6 157.2 8.8V24.2C157.2 24.4 157.3 24.5 157.5 24.5H159.9C160.1 24.5 160.2 24.4 160.2 24.2V16.2C160.2 15.5 160.2 14.8 160.2 14.1C160.2 13.8 160.2 13.5 160.2 13.2C160.3 13.3 160.3 13.4 160.4 13.5C160.7 13.9 161 14.3 161.3 14.7L169 24.4C169.1 24.5 169.2 24.5 169.3 24.5H171.5C171.7 24.5 171.8 24.4 171.8 24.2V8.9C171.6 8.7 171.5 8.5 171.3 8.5Z" fill="#305AA5"/>
<path d="M190.5 9.2C189.9 8.9 189.2 8.7 188.4 8.5C187.7 8.3 186.7 8.2 185.6 8.2C184.4 8.2 183.2 8.4 182.2 8.7C181.2 9.1 180.2 9.6 179.5 10.3C178.7 11 178.1 11.9 177.7 12.9C177.3 13.9 177.1 15.1 177.1 16.4C177.1 17.7 177.3 18.9 177.8 19.9C178.2 20.9 178.8 21.8 179.6 22.5C180.4 23.2 181.3 23.7 182.3 24.1C183.3 24.5 184.4 24.6 185.6 24.6C186.7 24.6 187.6 24.5 188.4 24.4C189.2 24.3 189.9 24.1 190.5 23.8C190.7 23.7 190.7 23.6 190.7 23.4L190.1 21.6C190.1 21.5 190 21.4 189.9 21.4C189.8 21.4 189.7 21.4 189.6 21.4C189 21.6 188.5 21.8 187.9 21.9C187.3 22 186.6 22.1 185.7 22.1C185 22.1 184.3 22 183.6 21.8C183 21.6 182.4 21.3 181.9 20.8C181.4 20.4 181 19.8 180.8 19.1C180.5 18.4 180.4 17.5 180.4 16.4C180.4 15.4 180.6 14.4 180.8 13.7C181.1 13 181.5 12.4 182 11.9C182.5 11.4 183.1 11.1 183.7 10.9C184.4 10.7 185.1 10.6 185.9 10.6C186.3 10.6 186.6 10.6 186.9 10.6C187.2 10.6 187.5 10.7 187.8 10.7C188.1 10.8 188.4 10.8 188.7 10.9C189 11 189.3 11.1 189.7 11.3C189.8 11.3 189.9 11.3 190 11.3C190.1 11.3 190.1 11.2 190.2 11.1L190.8 9.3C190.7 9.5 190.6 9.3 190.5 9.2Z" fill="#305AA5"/>
<path d="M224.5 18C224.8 17.9 225.1 17.7 225.5 17.5C225.9 17.2 226.3 16.9 226.7 16.5C227 16.1 227.3 15.7 227.5 15.2C227.7 14.7 227.8 14.1 227.8 13.5C227.8 12.8 227.7 12.1 227.4 11.5C227.1 10.9 226.8 10.4 226.3 9.9C225.8 9.5 225.2 9.1 224.5 8.9C223.8 8.7 223 8.5 222.1 8.5H216.6C216.4 8.5 216.3 8.6 216.3 8.8V24.2C216.3 24.4 216.4 24.5 216.6 24.5H218.9C219.1 24.5 219.2 24.4 219.2 24.2V18.6H221.5L225.4 24.5C225.5 24.6 225.6 24.6 225.7 24.6H228.5C228.6 24.6 228.7 24.5 228.8 24.4C228.9 24.3 228.8 24.2 228.8 24.1L224.5 18ZM224.3 14.7C224.1 15 223.9 15.3 223.6 15.5C223.3 15.7 222.9 15.9 222.5 15.9C222.1 16 221.6 16.1 221 16.1H219.3V11H221.4C222.5 11 223.3 11.2 223.8 11.6C224.3 12 224.6 12.7 224.6 13.6C224.6 14 224.5 14.4 224.3 14.7Z" fill="#305AA5"/>
<path d="M244.9 11.4C244.6 10.8 244.2 10.2 243.6 9.8C243.1 9.4 242.4 9.1 241.6 8.8C240.9 8.6 240 8.5 239.1 8.5H233.8C233.6 8.5 233.5 8.6 233.5 8.8V24.2C233.5 24.4 233.6 24.5 233.8 24.5H236.3C236.5 24.5 236.6 24.4 236.6 24.2V18.6H238.8C239.7 18.6 240.6 18.5 241.4 18.3C242.2 18.1 242.9 17.8 243.5 17.4C244.1 17 244.6 16.4 244.9 15.8C245.2 15.2 245.4 14.4 245.4 13.5C245.4 12.7 245.2 12 244.9 11.4ZM242.1 13.6C242.1 14.1 242 14.6 241.8 14.9C241.6 15.2 241.3 15.5 241 15.7C240.6 15.9 240.2 16 239.6 16.1C239 16.2 238.4 16.2 237.8 16.2H236.6V11H238.6C239.1 11 239.5 11 240 11.1C240.4 11.2 240.8 11.3 241.1 11.5C241.4 11.7 241.7 12 241.9 12.3C242 12.7 242.1 13.1 242.1 13.6Z" fill="#305AA5"/>
<path d="M5.2 8.5H2.8C2.6 8.5 2.5 8.6 2.5 8.8V24.2C2.5 24.4 2.6 24.5 2.8 24.5H5.2C5.4 24.5 5.5 24.4 5.5 24.2V8.9C5.6 8.7 5.4 8.5 5.2 8.5Z" fill="#305AA5"/>
<path d="M26.1 8.5H23.7C23.5 8.5 23.4 8.6 23.4 8.8V17.4C23.4 18 23.4 18.6 23.4 19.1C23.4 19.3 23.4 19.5 23.4 19.7C23.4 19.6 23.3 19.6 23.3 19.5C23 19.1 22.7 18.7 22.5 18.4L14.8 8.6C14.7 8.5 14.6 8.5 14.5 8.5H12.2C12 8.5 11.9 8.6 11.9 8.8V24.2C11.9 24.4 12 24.5 12.2 24.5H14.6C14.8 24.5 14.9 24.4 14.9 24.2V16.2C14.9 15.5 14.9 14.8 14.9 14.1C14.9 13.8 14.9 13.5 14.9 13.2C15 13.3 15 13.4 15.1 13.5C15.4 13.9 15.7 14.3 16 14.7L23.7 24.4C23.8 24.5 23.9 24.5 24 24.5H26.2C26.4 24.5 26.5 24.4 26.5 24.2V8.9C26.4 8.7 26.2 8.5 26.1 8.5Z" fill="#305AA5"/>
<path d="M43 8.5H33C32.8 8.5 32.7 8.6 32.7 8.8V24.2C32.7 24.4 32.8 24.5 33 24.5H35.5C35.7 24.5 35.8 24.4 35.8 24.2V17.8H42.4C42.6 17.8 42.7 17.7 42.7 17.5V15.7C42.7 15.5 42.6 15.4 42.4 15.4H35.8V11.1H43C43.2 11.1 43.3 11 43.3 10.8V8.9C43.4 8.7 43.2 8.5 43 8.5Z" fill="#305AA5"/>
<path d="M51.3 8.5H48.8C48.6 8.5 48.5 8.6 48.5 8.8V24.2C48.5 24.4 48.6 24.5 48.8 24.5H51.3C51.5 24.5 51.6 24.4 51.6 24.2V8.9C51.6 8.7 51.5 8.5 51.3 8.5Z" fill="#305AA5"/>
<path d="M72.1 8.5H69.7C69.5 8.5 69.4 8.6 69.4 8.8V17.4C69.4 18 69.4 18.6 69.4 19.1C69.4 19.3 69.4 19.5 69.4 19.7C69.4 19.6 69.3 19.6 69.3 19.5C69 19.1 68.7 18.7 68.5 18.4L60.8 8.6C60.7 8.5 60.6 8.5 60.5 8.5H58.3C58.1 8.5 58 8.6 58 8.8V24.2C58 24.4 58.1 24.5 58.3 24.5H60.7C60.9 24.5 61 24.4 61 24.2V16.2C61 15.5 61 14.8 61 14.1C61 13.8 61 13.5 61 13.2C61.1 13.3 61.1 13.4 61.2 13.5C61.5 13.9 61.8 14.3 62.1 14.7L69.8 24.4C69.9 24.5 70 24.5 70.1 24.5H72.3C72.5 24.5 72.6 24.4 72.6 24.2V8.9C72.5 8.7 72.3 8.5 72.1 8.5Z" fill="#305AA5"/>
<path d="M81.6 8.5H79.1C78.9 8.5 78.8 8.6 78.8 8.8V24.2C78.8 24.4 78.9 24.5 79.1 24.5H81.6C81.8 24.5 81.9 24.4 81.9 24.2V8.9C81.9 8.7 81.8 8.5 81.6 8.5Z" fill="#305AA5"/>
<path d="M99.7 8.5H86.7C86.5 8.5 86.4 8.6 86.4 8.8V10.7C86.4 10.9 86.5 11 86.7 11H91.6V24.2C91.6 24.4 91.7 24.5 91.9 24.5H94.4C94.6 24.5 94.7 24.4 94.7 24.2V11.1H99.7C99.9 11.1 100 11 100 10.8V8.9C100 8.7 99.9 8.5 99.7 8.5Z" fill="#305AA5"/>
<path d="M117.4 8.5H114.8C114.7 8.5 114.6 8.6 114.5 8.7L110.5 15.2L106.5 8.7C106.4 8.6 106.3 8.5 106.2 8.5H103.5C103.4 8.5 103.3 8.6 103.2 8.7C103.1 8.8 103.1 8.9 103.2 9L108.8 17.9V24.3C108.8 24.5 108.9 24.6 109.1 24.6H111.6C111.8 24.6 111.9 24.5 111.9 24.3V17.9L117.6 9C117.7 8.9 117.7 8.8 117.6 8.7C117.6 8.6 117.5 8.5 117.4 8.5Z" fill="#305AA5"/>
<path d="M4 7C5.65685 7 7 5.65685 7 4C7 2.34315 5.65685 1 4 1C2.34315 1 1 2.34315 1 4C1 5.65685 2.34315 7 4 7Z" fill="#E63926"/>
</svg>
