<svg width="85" height="85" viewBox="0 0 85 85" fill="none" xmlns="http://www.w3.org/2000/svg">
<path d="M43.0134 1C25.8963 1 20.8902 1.01766 19.9171 1.09841C16.4043 1.39048 14.2185 1.94371 11.8372 3.12966C10.002 4.0412 8.55463 5.09782 7.12621 6.57899C4.52477 9.28018 2.94815 12.6034 2.37741 16.5536C2.09992 18.4713 2.0192 18.8624 2.0028 28.6578C1.9965 31.9229 2.0028 36.2201 2.0028 41.9839C2.0028 59.0918 2.02172 64.0942 2.10371 65.0657C2.3875 68.4848 2.92355 70.6359 4.05872 72.9888C6.22816 77.4929 10.3715 80.8741 15.2528 82.1358C16.9429 82.571 18.8096 82.8108 21.2061 82.9243C22.2215 82.9685 32.5704 83 42.9257 83C53.281 83 63.6363 82.9874 64.6264 82.9369C67.4013 82.8063 69.0126 82.59 70.7942 82.1295C73.2145 81.5086 75.4701 80.3668 77.4036 78.7836C79.337 77.2005 80.9017 75.2142 81.9882 72.9636C83.1013 70.6674 83.6658 68.4343 83.9212 65.1938C83.9767 64.4872 84 53.2227 84 41.9732C84 30.7218 83.9748 19.4781 83.9193 18.7715C83.6607 15.4786 83.0963 13.2645 81.9472 10.9241C81.0044 9.00829 79.9575 7.57759 78.4377 6.11471C75.7259 3.52329 72.4086 1.94623 68.4551 1.37597C66.5398 1.09904 66.1583 1.01703 56.358 1H43.0134Z" fill="url(#paint0_radial_1_36)"/>
<path d="M43.0134 1C25.8963 1 20.8902 1.01766 19.9171 1.09841C16.4043 1.39048 14.2185 1.94371 11.8372 3.12966C10.002 4.0412 8.55463 5.09782 7.12621 6.57899C4.52477 9.28018 2.94815 12.6034 2.37741 16.5536C2.09992 18.4713 2.0192 18.8624 2.0028 28.6578C1.9965 31.9229 2.0028 36.2201 2.0028 41.9839C2.0028 59.0918 2.02172 64.0942 2.10371 65.0657C2.3875 68.4848 2.92355 70.6359 4.05872 72.9888C6.22816 77.4929 10.3715 80.8741 15.2528 82.1358C16.9429 82.571 18.8096 82.8108 21.2061 82.9243C22.2215 82.9685 32.5704 83 42.9257 83C53.281 83 63.6363 82.9874 64.6264 82.9369C67.4013 82.8063 69.0126 82.59 70.7942 82.1295C73.2145 81.5086 75.4701 80.3668 77.4036 78.7836C79.337 77.2005 80.9017 75.2142 81.9882 72.9636C83.1013 70.6674 83.6658 68.4343 83.9212 65.1938C83.9767 64.4872 84 53.2227 84 41.9732C84 30.7218 83.9748 19.4781 83.9193 18.7715C83.6607 15.4786 83.0963 13.2645 81.9472 10.9241C81.0044 9.00829 79.9575 7.57759 78.4377 6.11471C75.7259 3.52329 72.4086 1.94623 68.4551 1.37597C66.5398 1.09904 66.1583 1.01703 56.358 1H43.0134Z" fill="url(#paint1_radial_1_36)"/>
<path d="M42.9945 11.724C34.7734 11.724 33.7416 11.76 30.5127 11.9069C27.2901 12.0546 25.0904 12.5649 23.1656 13.3137C21.1747 14.0871 19.4858 15.1216 17.8032 16.8053C16.1194 18.4883 15.0851 20.1777 14.3094 22.1685C13.5589 24.0944 13.0481 26.2954 12.9031 29.5176C12.7593 32.7474 12.7214 33.7801 12.7214 42.0035C12.7214 50.2269 12.758 51.2558 12.9043 54.4856C13.0525 57.7091 13.5627 59.9094 14.3107 61.8347C15.0845 63.8262 16.1187 65.5155 17.8019 67.1986C19.4839 68.8829 21.1728 69.92 23.1625 70.6933C25.0885 71.4421 27.2888 71.9525 30.5108 72.1001C33.7397 72.2471 34.7708 72.283 42.9914 72.283C51.2131 72.283 52.2417 72.2471 55.4707 72.1001C58.6933 71.9525 60.8955 71.4421 62.8215 70.6933C64.8118 69.92 66.4982 68.8829 68.1801 67.1986C69.864 65.5155 70.8982 63.8262 71.6739 61.8353C72.4181 59.9094 72.9289 57.7085 73.0803 54.4862C73.2253 51.2564 73.2632 50.2269 73.2632 42.0035C73.2632 33.7801 73.2253 32.7481 73.0803 29.5183C72.9289 26.2948 72.4181 24.0944 71.6739 22.1692C70.8982 20.1777 69.864 18.4883 68.1801 16.8053C66.4963 15.121 64.8125 14.0864 62.8196 13.3137C60.8898 12.5649 58.6889 12.0546 55.4662 11.9069C52.2373 11.76 51.2094 11.724 42.9857 11.724H42.9945ZM40.2789 17.1806C41.0849 17.1794 41.9842 17.1806 42.9945 17.1806C51.0769 17.1806 52.0349 17.2096 55.2266 17.3547C58.178 17.4897 59.7799 17.983 60.8469 18.3975C62.2596 18.9463 63.2668 19.6023 64.3256 20.6621C65.3851 21.7219 66.041 22.7312 66.5909 24.1443C67.0052 25.2104 67.499 26.8127 67.6334 29.7649C67.7784 32.9569 67.81 33.9157 67.81 41.9966C67.81 50.0774 67.7784 51.0363 67.6334 54.2282C67.4984 57.1805 67.0052 58.7828 66.5909 59.8489C66.0422 61.2619 65.3851 62.2681 64.3256 63.3272C63.2661 64.387 62.2602 65.0431 60.8469 65.5919C59.7811 66.0082 58.178 66.5003 55.2266 66.6353C52.0355 66.7803 51.0769 66.8119 42.9945 66.8119C34.9115 66.8119 33.9535 66.7803 30.7624 66.6353C27.811 66.499 26.2091 66.0057 25.1415 65.5912C23.7288 65.0424 22.7198 64.3864 21.6603 63.3266C20.6008 62.2668 19.9449 61.26 19.395 59.8463C18.9806 58.7802 18.4868 57.178 18.3525 54.2257C18.2075 51.0337 18.1784 50.0749 18.1784 41.989C18.1784 33.9031 18.2075 32.9493 18.3525 29.7573C18.4875 26.8051 18.9806 25.2028 19.395 24.1354C19.9436 22.7224 20.6008 21.7131 21.6603 20.6533C22.7198 19.5935 23.7288 18.9375 25.1415 18.3874C26.2085 17.971 27.811 17.479 30.7624 17.3434C33.5549 17.2172 34.6371 17.1794 40.2789 17.173V17.1806ZM59.153 22.2083C58.4345 22.2083 57.7322 22.4214 57.1348 22.8207C56.5374 23.22 56.0718 23.7876 55.7969 24.4516C55.522 25.1156 55.4501 25.8463 55.5904 26.5512C55.7306 27.256 56.0767 27.9035 56.5849 28.4116C57.093 28.9197 57.7404 29.2656 58.4451 29.4057C59.1498 29.5458 59.8803 29.4736 60.544 29.1984C61.2077 28.9232 61.775 28.4573 62.174 27.8596C62.573 27.2619 62.7858 26.5593 62.7856 25.8406C62.7856 23.8345 61.1585 22.207 59.153 22.207V22.2083ZM42.9945 26.4537C34.4095 26.4537 27.449 33.4161 27.449 42.0035C27.449 50.5909 34.4095 57.5501 42.9945 57.5501C51.5795 57.5501 58.5381 50.5909 58.5381 42.0035C58.5381 33.4161 51.5789 26.4537 42.9939 26.4537H42.9945ZM42.9945 31.9103C48.5669 31.9103 53.0849 36.4289 53.0849 42.0035C53.0849 47.5775 48.5669 52.0967 42.9945 52.0967C37.4215 52.0967 32.9041 47.5775 32.9041 42.0035C32.9041 36.4289 37.4215 31.9103 42.9945 31.9103V31.9103Z" fill="white"/>
<defs>
<radialGradient id="paint0_radial_1_36" cx="0" cy="0" r="1" gradientUnits="userSpaceOnUse" gradientTransform="translate(23.7814 89.3157) rotate(-90) scale(81.2681 75.5857)">
<stop stop-color="#FFDD55"/>
<stop offset="0.1" stop-color="#FFDD55"/>
<stop offset="0.5" stop-color="#FF543E"/>
<stop offset="1" stop-color="#C837AB"/>
</radialGradient>
<radialGradient id="paint1_radial_1_36" cx="0" cy="0" r="1" gradientUnits="userSpaceOnUse" gradientTransform="translate(-11.7354 6.90714) rotate(78.6806) scale(36.3272 149.742)">
<stop stop-color="#3771C8"/>
<stop offset="0.128" stop-color="#3771C8"/>
<stop offset="1" stop-color="#6600FF" stop-opacity="0"/>
</radialGradient>
</defs>
</svg>
