<svg width="75" height="85" viewBox="0 0 75 85" fill="none" xmlns="http://www.w3.org/2000/svg">
<g clip-path="url(#clip0_2_4)">
<path d="M6.93704 76.4023L-0.00292969 0.00439453L74.7621 0.0335536L67.8805 76.344L37.3213 84.9752L6.93704 76.4023ZM62.2527 72.2325L68.0554 6.79856H37.4379L37.6712 78.9684L62.2527 72.2325V72.2325ZM34.5803 16.392H27.1446L27.0571 55.5533L12.6232 51.6167L12.6523 60.5687L34.5803 66.4881V16.392V16.392Z" fill="#D4B830"/>
<path opacity="0.986" d="M12.6522 60.5685L12.623 51.6166C12.623 51.6166 21.8375 54.2118 27.057 55.5531L27.1445 16.4211H34.5802V66.4879L12.6522 60.5685V60.5685Z" fill="#EBEBEB" fill-opacity="0.9216"/>
<path d="M37.438 6.76929H68.0555L62.2527 72.2031L37.438 78.939V6.76929ZM60.6781 61.2392L62.6901 36.7744L47.8188 38.4365V25.373L63.6816 25.3147L64.3231 16.3919L40.3831 16.5085L40.7039 48.9922L55.167 46.5136L54.9629 53.7452L40.3831 57.6234L40.5289 66.4879L60.6781 61.2392Z" fill="#FDD83C"/>
</g>
<defs>
<clipPath id="clip0_2_4">
<rect width="74.766" height="85" fill="white"/>
</clipPath>
</defs>
</svg>
