<svg width="86" height="85" viewBox="0 0 86 85" fill="none" xmlns="http://www.w3.org/2000/svg">
<g clip-path="url(#clip0_1_34)">
<path d="M72.4255 72.4262H59.8315V52.697C59.8315 47.993 59.7467 41.9357 53.2801 41.9357C46.7206 41.9357 45.7162 47.0604 45.7162 52.3513V72.4245H33.1221V31.864H45.2124V37.4077H45.3754C46.5856 35.3388 48.3343 33.6369 50.4352 32.4832C52.5361 31.3296 54.9106 30.7673 57.3058 30.8564C70.0711 30.8564 72.4255 39.2535 72.4255 50.1763V72.4262ZM18.9106 26.3187C17.4649 26.319 16.0515 25.8906 14.8492 25.0876C13.6469 24.2846 12.7098 23.1431 12.1563 21.8075C11.6028 20.4719 11.4578 19.0021 11.7397 17.5841C12.0215 16.166 12.7176 14.8635 13.7398 13.841C14.762 12.8186 16.0644 12.1223 17.4824 11.8401C18.9003 11.5579 20.3701 11.7026 21.7059 12.2558C23.0416 12.809 24.1833 13.7459 24.9866 14.9479C25.7898 16.15 26.2186 17.5633 26.2186 19.0091C26.2186 20.9474 25.4487 22.8064 24.0782 24.1772C22.7078 25.5479 20.849 26.3182 18.9106 26.3187V26.3187ZM25.2077 72.4245H12.6006V31.864H25.2093L25.2077 72.4245ZM78.6981 0.00552488H6.27093C5.45617 -0.00437891 4.64745 0.146523 3.89109 0.449591C3.13473 0.752658 2.44557 1.20194 1.86308 1.77171C1.28058 2.34148 0.816198 3.02055 0.496504 3.77004C0.17681 4.51953 0.00808804 5.32471 0 6.1395V78.8602C0.0193526 80.505 0.690844 82.075 1.86696 83.2251C3.04308 84.3753 4.62764 85.0115 6.27256 84.9941H78.6981C80.3473 85.0163 81.9379 84.3826 83.1199 83.2323C84.302 82.082 84.9789 80.5094 85.0016 78.8602V6.12645C84.978 4.47823 84.3006 2.90689 83.1185 1.75809C81.9364 0.609283 80.3463 -0.0228864 78.6981 0.000633558" fill="#0A66C2"/>
</g>
<defs>
<clipPath id="clip0_1_34">
<rect width="85.0033" height="85" fill="white"/>
</clipPath>
</defs>
</svg>
