<svg id="Layer_1" data-name="Layer 1" xmlns="http://www.w3.org/2000/svg" xmlns:xlink="http://www.w3.org/1999/xlink" viewBox="0 0 278 141"><defs><style>.cls-1{fill:#007cf7;}.cls-2{fill:none;}.cls-3{fill:#056cc9;}.cls-4{fill:url(#linear-gradient);}.cls-5{fill:url(#linear-gradient-2);}.cls-6{fill:url(#linear-gradient-3);}.cls-7{fill:url(#linear-gradient-4);}</style><linearGradient id="linear-gradient" x1="45.52" y1="112.5" x2="83.1" y2="47.41" gradientUnits="userSpaceOnUse"><stop offset="0" stop-color="#173f8e"/><stop offset="1" stop-color="#1e83fa"/></linearGradient><linearGradient id="linear-gradient-2" x1="128.36" y1="118.58" x2="165.2" y2="81.74" gradientUnits="userSpaceOnUse"><stop offset="0" stop-color="#328a38"/><stop offset="1" stop-color="#ccd831"/></linearGradient><linearGradient id="linear-gradient-3" x1="181.7" y1="73.08" x2="220.97" y2="112.35" gradientUnits="userSpaceOnUse"><stop offset="0" stop-color="#ec2988"/><stop offset="1" stop-color="#67469b"/></linearGradient><linearGradient id="linear-gradient-4" x1="232.36" y1="107.24" x2="270.82" y2="68.78" gradientUnits="userSpaceOnUse"><stop offset="0" stop-color="#ec1c24"/><stop offset="1" stop-color="#f37421"/></linearGradient></defs><circle class="cls-1" cx="67.33" cy="117.99" r="5.3"/><path class="cls-2" d="M131,40.07a5.08,5.08,0,0,0-3.12-.85H126.4a1.26,1.26,0,0,0-1.25,1.28v4.25A1.26,1.26,0,0,0,126.4,46h1.44a5.12,5.12,0,0,0,3.09-.85,2.89,2.89,0,0,0,1.18-2.51v-.09A3,3,0,0,0,131,40.07Z"/><path class="cls-3" d="M137.71,34.51a11.32,11.32,0,0,0-3.9-1.87,19.53,19.53,0,0,0-5.2-.65H116.4a.34.34,0,0,0-.33.35v28a.34.34,0,0,0,.33.35h7.5a.34.34,0,0,0,.33-.35V54.6a2.19,2.19,0,0,1,2.17-2.21h2a18.86,18.86,0,0,0,5.28-.69,11.2,11.2,0,0,0,4-2,9,9,0,0,0,2.52-3.23,10.6,10.6,0,0,0,.89-4.46,10.16,10.16,0,0,0-.89-4.44A8.52,8.52,0,0,0,137.71,34.51Zm-5.6,8.16a2.89,2.89,0,0,1-1.18,2.51,5.12,5.12,0,0,1-3.09.85H126.4a1.26,1.26,0,0,1-1.25-1.28V40.5a1.26,1.26,0,0,1,1.25-1.28h1.48a5.08,5.08,0,0,1,3.12.85,3,3,0,0,1,1.11,2.51Z"/><path class="cls-3" d="M172,32h-7.49a.35.35,0,0,0-.34.35v8.22A2.19,2.19,0,0,1,162,42.77h-6.64a2.18,2.18,0,0,1-2.16-2.21V32.34a.35.35,0,0,0-.34-.35h-7.49a.35.35,0,0,0-.34.35v28a.35.35,0,0,0,.34.35h7.49a.35.35,0,0,0,.34-.35V51.94a2.18,2.18,0,0,1,2.16-2.21H162a2.19,2.19,0,0,1,2.16,2.21v8.39a.35.35,0,0,0,.34.35H172a.35.35,0,0,0,.34-.35v-28A.35.35,0,0,0,172,32Z"/><path class="cls-3" d="M203.28,35.67a15.43,15.43,0,0,0-4.88-3.18,16,16,0,0,0-6.08-1.15,15.8,15.8,0,0,0-6.11,1.17,15.51,15.51,0,0,0-4.9,3.22,15.16,15.16,0,0,0-3.26,4.76,15.35,15.35,0,0,0,0,11.78A14.43,14.43,0,0,0,181.26,57a15.4,15.4,0,0,0,4.88,3.17,16.59,16.59,0,0,0,12.19,0,15.26,15.26,0,0,0,4.9-3.21,15,15,0,0,0,3.26-4.77,14.48,14.48,0,0,0,1.18-5.84,15,15,0,0,0-1.16-5.94A14.42,14.42,0,0,0,203.28,35.67Zm-4.34,13.64a7.49,7.49,0,0,1-1.42,2.47,7,7,0,0,1-2.25,1.72,6.58,6.58,0,0,1-3,.66,6.72,6.72,0,0,1-3-.66,7,7,0,0,1-2.25-1.75,8.11,8.11,0,0,1-1.43-2.5,8.6,8.6,0,0,1-.5-2.91,8.83,8.83,0,0,1,.48-3A7.42,7.42,0,0,1,187,40.9a6.88,6.88,0,0,1,8.21-1.73,6.84,6.84,0,0,1,2.26,1.76,8,8,0,0,1,1.42,2.49,8.46,8.46,0,0,1,.51,2.92A8.81,8.81,0,0,1,198.94,49.31Z"/><path class="cls-3" d="M240,32h-7.41a.35.35,0,0,0-.34.35v8.6a2.28,2.28,0,0,1-1.3,2.13,2.06,2.06,0,0,1-2.45-.64l-8.13-10.31a.33.33,0,0,0-.26-.13h-7.5a.35.35,0,0,0-.34.35v28a.35.35,0,0,0,.34.35H220a.35.35,0,0,0,.34-.35V51.18a2.32,2.32,0,0,1,1.47-2.24,2.17,2.17,0,0,1,.66-.11,2.08,2.08,0,0,1,1.63.81l8.59,10.91a.35.35,0,0,0,.26.13h7a.35.35,0,0,0,.34-.35v-28A.35.35,0,0,0,240,32Z"/><path class="cls-3" d="M269.08,54.16H255.7A2.18,2.18,0,0,1,253.53,52v-.76A2.19,2.19,0,0,1,255.7,49h12.1a.34.34,0,0,0,.34-.34V43.82a.35.35,0,0,0-.34-.35H255.7a2.19,2.19,0,0,1-2.17-2.21v-.54a2.19,2.19,0,0,1,2.17-2.21h13.17a.35.35,0,0,0,.34-.35V32.34a.35.35,0,0,0-.34-.35h-23a.34.34,0,0,0-.33.35v28a.34.34,0,0,0,.33.35h23.21a.35.35,0,0,0,.34-.35V54.51A.35.35,0,0,0,269.08,54.16Z"/><path class="cls-4" d="M124.35,74.14l-7.55-7.21a2.05,2.05,0,0,0-2.9.07L91.85,90.08,68.2,66.91a2,2,0,0,0-2.87,0L41.75,90.08,19.46,67A2.08,2.08,0,0,0,18,66.39a2,2,0,0,0-1.46.6L9.19,74.26a2.06,2.06,0,0,0,0,2.88l30.94,32.13a2,2,0,0,0,1.44.63h0a2.06,2.06,0,0,0,1.43-.58l22.55-22a1.79,1.79,0,0,1,2.5,0l22.67,22a2.08,2.08,0,0,0,1.43.58h0a2.08,2.08,0,0,0,1.45-.63L124.42,77a2,2,0,0,0,.57-1.46A2.09,2.09,0,0,0,124.35,74.14Z"/><path class="cls-3" d="M109.44,64V17.53A16.25,16.25,0,0,0,93.19,1.27H40.44A16.26,16.26,0,0,0,24.18,17.53V63.87a1.14,1.14,0,0,0,.33.81l12,12.44a1.17,1.17,0,0,0,2-.81V17.82a2.19,2.19,0,0,1,2.19-2.19H92.9a2.19,2.19,0,0,1,2.19,2.19V76.54a1.17,1.17,0,0,0,2,.81l12-12.58A1.17,1.17,0,0,0,109.44,64Z"/><path class="cls-3" d="M107.43,102.43,95.41,115a1.17,1.17,0,0,0-.32.81v7.36a2.19,2.19,0,0,1-2.19,2.19H40.73a2.19,2.19,0,0,1-2.19-2.19v-7.84a1.14,1.14,0,0,0-.33-.8l-12-12.49a1.17,1.17,0,0,0-2,.81v20.61a16.26,16.26,0,0,0,16.26,16.26H93.19a16.25,16.25,0,0,0,16.25-16.26V103.23A1.17,1.17,0,0,0,107.43,102.43Z"/><path class="cls-5" d="M151.85,68.38a7.12,7.12,0,0,0-10.13,0l-30.21,30.3a2,2,0,0,0,0,2.75l7.46,7.74a1.86,1.86,0,0,0,2.69,0l23.81-23.88a1.87,1.87,0,0,1,2.66,0l23.81,23.88a1.86,1.86,0,0,0,2.69,0l7.46-7.74a2,2,0,0,0,0-2.75Z"/><path class="cls-6" d="M222.79,95.31H203.67a1.91,1.91,0,0,1-1.9-1.9V68.24a1.91,1.91,0,0,0-1.9-1.9H189.23a1.91,1.91,0,0,0-1.9,1.9v32.39a9.12,9.12,0,0,0,9.12,9.12h26.34a1.9,1.9,0,0,0,1.9-1.9V97.21A1.9,1.9,0,0,0,222.79,95.31Z"/><path class="cls-7" d="M245.87,80.71h21.65a1.9,1.9,0,0,0,1.9-1.9V68.17a1.9,1.9,0,0,0-1.9-1.9H238.65a9.12,9.12,0,0,0-9.13,9.12v25.24a9.12,9.12,0,0,0,9.13,9.12h28.87a1.9,1.9,0,0,0,1.9-1.9V97.21a1.9,1.9,0,0,0-1.9-1.9H245.87a1.91,1.91,0,0,1-1.9-1.9V89.87h17.67a1.9,1.9,0,1,0,0-3.8H244V82.61A1.9,1.9,0,0,1,245.87,80.71Z"/></svg>