<svg id="Layer_1" data-name="Layer 1" xmlns="http://www.w3.org/2000/svg" viewBox="0 0 500 67"><defs><style>.cls-1{fill:#ffe21c;}.cls-2{fill:none;}</style></defs><path class="cls-1" d="M125.32,50.31H99.83L94.55,63.59H83.83L109,1.73h7.26l25.07,61.86H130.6Zm-3.38-8.74-9.32-23.51L103.3,41.57Z"/><path class="cls-1" d="M200.94,44l13.28,19.63H202.34L190.47,46H177.68V63.59H167.21V1.73h24.25a22,22,0,0,1,22.18,22.1A21.86,21.86,0,0,1,200.94,44Zm-9.81-6.68c7,0,12-5.61,12-13.45s-5-13.36-12-13.36H177.68V37.28Z"/><path class="cls-1" d="M241.76,63.59V1.73h10.47V63.59Z"/><path class="cls-1" d="M323.32,63.59,291.9,17.15V63.59H281.42V1.73H293.3l31.43,46.43V1.73h10.55V63.59Z"/><path class="cls-1" d="M413.79,63.59H403.32V37H375.19V63.59H364.72V1.73h10.47V28.29h28.13V1.73h10.47Z"/><path class="cls-1" d="M480.34,50.31H454.86l-5.28,13.28H438.86L464,1.73h7.26l25.07,61.86H485.62ZM477,41.57l-9.32-23.51-9.32,23.51Z"/><path class="cls-2" d="M34.6,11.54a21.15,21.15,0,1,0,9.86,39.84l-6.14-6.13,6.93-6.93,6.59,6.59A21.13,21.13,0,0,0,34.6,11.54Z"/><path class="cls-1" d="M34.6,53.83a21.18,21.18,0,1,1,17.24-8.92l7,7a31,31,0,1,0-7.23,6.62l-7.14-7.14A21,21,0,0,1,34.6,53.83Z"/><path class="cls-1" d="M51.6,58.52l6.74,6.75,6.93-6.93L58.83,51.9A31,31,0,0,1,51.6,58.52Z"/><path class="cls-1" d="M38.32,45.25l6.14,6.13a21.28,21.28,0,0,0,7.38-6.47l-6.59-6.59Z"/></svg>