<svg id="Layer_1" data-name="Layer 1" xmlns="http://www.w3.org/2000/svg" viewBox="0 0 260 141"><defs><style>.cls-1{fill:#f8e100;}.cls-2{fill:#231f20;}</style></defs><circle class="cls-1" cx="183.82" cy="72.97" r="60.73"/><path class="cls-2" d="M223.65,123a67.3,67.3,0,1,0-2.74,2.08l6.63,8.62a.81.81,0,0,0,1.12.16l1.45-1.18a.79.79,0,0,0,.21-1.09l-.07-.08Zm-105-51.91a63.25,63.25,0,1,1,63.25,63.25A63.25,63.25,0,0,1,118.62,71.1Z"/><path class="cls-2" d="M17.16,86.64c-4.69,0-6-2-6-5.75V77.81a1,1,0,0,1,.8-1.07h1.89a.94.94,0,0,1,1,.84,1.77,1.77,0,0,1,0,.23v3c0,2,.72,2.7,2.35,2.7s2.34-.67,2.34-2.7c0-3-.38-3.24-2.12-5l-3.67-3.52c-1.74-1.69-2.56-3.14-2.56-7.24,0-3.72,1.35-5.75,6-5.75s6,2,6,5.75V68.2a.92.92,0,0,1-1.06,1H20.54a.94.94,0,0,1-1.05-.78.88.88,0,0,1,0-.23V65.11c0-2.07-.73-2.71-2.35-2.71s-2.35.64-2.35,2.71c0,3,.39,3.18,2.13,5l3.66,3.52c1.75,1.69,2.62,3.13,2.62,7.24C23.21,84.61,21.8,86.64,17.16,86.64Z"/><path class="cls-2" d="M39,73.36a1,1,0,0,1-.79,1.18,1.27,1.27,0,0,1-.39,0H30.63v6.37c0,2,.73,2.69,2.35,2.69s2.35-.66,2.35-2.69v-1.8a.9.9,0,0,1,.77-1,1,1,0,0,1,.25,0H38a.9.9,0,0,1,1,.77,1,1,0,0,1,0,.25v1.78c0,3.72-1.35,5.75-6,5.75s-6-2-6-5.75V65.07c0-3.72,1.36-5.75,6-5.75s6,2,6,5.75Zm-8.36-1.92h4.7V65.11c0-2.07-.73-2.71-2.35-2.71s-2.35.64-2.35,2.71Z"/><path class="cls-2" d="M51.25,71.34V65.11c0-2.07-.73-2.71-2.35-2.71s-2.35.64-2.35,2.71v2.08a.93.93,0,0,1-.85,1H43.86a.93.93,0,0,1-1-.78.6.6,0,0,1,0-.23V65.07c0-3.72,1.35-5.75,6-5.75s6,2,6,5.75V85.39a.92.92,0,0,1-.81,1H52.21a.93.93,0,0,1-1-.81.67.67,0,0,1,0-.2v-.64a6.62,6.62,0,0,1-4.45,1.89c-2.12,0-4-1.36-4-4.44V77.12c0-3.72,1.35-5.74,6-5.74Zm-2.35,3c-1.59,0-2.35.67-2.35,2.7v3.63c0,2.06.53,2.7,2.13,2.7s2.56-.83,2.56-2.86V74.38Z"/><path class="cls-2" d="M70.84,70.66a.91.91,0,0,1-.81,1,.67.67,0,0,1-.2,0H68.19a.91.91,0,0,1-1-.79.81.81,0,0,1,0-.22V65.21c0-2-.58-2.7-2.17-2.7s-2.51.87-2.51,2.89V85.34a1,1,0,0,1-.89,1,.48.48,0,0,1-.17,0H59.84a1,1,0,0,1-1.07-.82,1.21,1.21,0,0,1,0-.19V60.57a.93.93,0,0,1,.85-1,.81.81,0,0,1,.22,0h1.62a.94.94,0,0,1,1,.79.81.81,0,0,1,0,.22v.64a6.46,6.46,0,0,1,4.4-1.89c2.1,0,3.93,1.37,3.93,4.44Z"/><path class="cls-2" d="M85.8,68.9a.89.89,0,0,1-.76,1,1,1,0,0,1-.25,0H83.15a.89.89,0,0,1-1-.75,1.13,1.13,0,0,1,0-.26V65.11c0-2.07-.73-2.71-2.35-2.71s-2.34.64-2.34,2.71V80.85c0,2,.71,2.7,2.34,2.7s2.35-.67,2.35-2.7V77.12a.92.92,0,0,1,.76-1.05.69.69,0,0,1,.25,0h1.64a.94.94,0,0,1,1,.83,1.77,1.77,0,0,1,0,.23v3.81c0,3.72-1.35,5.75-6,5.75s-6-2-6-5.75V65.07c0-3.72,1.35-5.75,6-5.75s6,2,6,5.75Z"/><path class="cls-2" d="M101.73,85.39a.91.91,0,0,1-.81,1H99.08a.92.92,0,0,1-1-.8.74.74,0,0,1,0-.21V65.21c0-2-.57-2.7-2.17-2.7s-2.51.87-2.51,2.89V85.34a.94.94,0,0,1-.88,1,.54.54,0,0,1-.18,0H90.79a1,1,0,0,1-1.07-.82,1.21,1.21,0,0,1,0-.19V48.79a.94.94,0,0,1,.85-1h1.81a.93.93,0,0,1,1.05.79.81.81,0,0,1,0,.22V61.21a6.43,6.43,0,0,1,4.39-1.89c2.12,0,4,1.35,4,4.44Z"/><path class="cls-2" d="M189.48,60.57,191,74.38l.77,8.22h.3l.68-8.22,1.63-13.81c.1-.72.39-1,1.17-1h1.55c.62,0,1.1.39,1,1.26L194.8,85.39a1,1,0,0,1-1.07,1h-3a1,1,0,0,1-1.16-.88.62.62,0,0,1,0-.13l-1.65-13.08-.68-8.22H187l-.68,8.22-1.62,13.08a1,1,0,0,1-1,1h-3.1a1.07,1.07,0,0,1-1.17-1v0l-3.29-24.57c-.14-.87.34-1.26,1-1.26h1.55c.78,0,1.07.29,1.18,1l1.64,13.81.71,8.22h.19l.78-8.22,1.57-13.81a1,1,0,0,1,1.17-1h2.47C189.05,59.52,189.34,59.85,189.48,60.57Z"/><path class="cls-2" d="M212.36,73.36a1,1,0,0,1-.78,1.18,1.28,1.28,0,0,1-.39,0H204v6.37c0,2,.72,2.69,2.34,2.69s2.35-.66,2.35-2.69v-1.8a.9.9,0,0,1,.77-1,1,1,0,0,1,.25,0h1.63a.9.9,0,0,1,1,.77,1,1,0,0,1,0,.25v1.78c0,3.72-1.35,5.75-6,5.75s-6-2-6-5.75V65.07c0-3.72,1.36-5.75,6-5.75s6,2,6,5.75ZM204,71.44h4.69V65.11c0-2.07-.72-2.71-2.35-2.71S204,63,204,65.11Z"/><path class="cls-2" d="M216.22,48.79a.92.92,0,0,1,.83-1h1.82a.94.94,0,0,1,1.06.8.74.74,0,0,1,0,.21V61.21a6.43,6.43,0,0,1,4.39-1.89c2.12,0,3.95,1.35,3.95,4.44V82.2c0,3.08-1.83,4.44-3.95,4.44a6.43,6.43,0,0,1-4.39-1.89v.64a.94.94,0,0,1-.88,1h-1.78a1,1,0,0,1-1.06-.84V48.79Zm8.4,16.43c0-2-.59-2.7-2.17-2.7s-2.51.87-2.51,2.89V80.55c0,2,.87,2.86,2.51,2.86s2.17-.64,2.17-2.7Z"/><path class="cls-2" d="M161.68,101.23h-2.09a.85.85,0,0,1-.85-.85h0V87.11a1.31,1.31,0,0,0-1.31-1.33H139.82a5.29,5.29,0,0,1-4.28-2,5.07,5.07,0,0,1,0-6.16L158,48.13a.86.86,0,0,1,1.17-.17l1.64,1.26a.86.86,0,0,1,.17,1.17L138.5,79.84a1.28,1.28,0,0,0-.13,1.38,1.31,1.31,0,0,0,1.18.75H157.3a5.16,5.16,0,0,1,5.14,5.14v13.26A.87.87,0,0,1,161.68,101.23Z"/></svg>