<svg width="94" height="85" viewBox="0 0 94 85" fill="none" xmlns="http://www.w3.org/2000/svg">
<g clip-path="url(#clip0_1_40)">
<path fill-rule="evenodd" clip-rule="evenodd" d="M19.0799 30.5417L46.8532 84.9021L0.171387 30.5417H19.0799Z" fill="#EA6C00"/>
<path fill-rule="evenodd" clip-rule="evenodd" d="M74.6344 30.5417L46.8612 84.9021L93.543 30.5417H74.6344Z" fill="#EA6C00"/>
<path fill-rule="evenodd" clip-rule="evenodd" d="M19.0791 30.5417H74.6256L46.8523 84.9021L19.0791 30.5417Z" fill="#FDAD00"/>
<path fill-rule="evenodd" clip-rule="evenodd" d="M46.8523 0.415039L20.5409 3.19632L19.0791 30.5416L46.8523 0.415039Z" fill="#FDD231"/>
<path fill-rule="evenodd" clip-rule="evenodd" d="M46.8522 0.415039L73.1637 3.19632L74.6255 30.5416L46.8522 0.415039Z" fill="#FDD231"/>
<path fill-rule="evenodd" clip-rule="evenodd" d="M93.543 30.5416L73.1726 3.19629L74.6344 30.5416H93.543Z" fill="#FDAD00"/>
<path fill-rule="evenodd" clip-rule="evenodd" d="M0.171387 30.5416L20.5417 3.19629L19.0799 30.5416H0.171387Z" fill="#FDAD00"/>
<path fill-rule="evenodd" clip-rule="evenodd" d="M46.8523 0.415039L19.0791 30.5416H74.6256L46.8523 0.415039Z" fill="#FEEEB7"/>
</g>
<defs>
<clipPath id="clip0_1_40">
<rect width="93.9019" height="85" fill="white"/>
</clipPath>
</defs>
</svg>
