<svg data-v-211cc331="" width="48" height="48" viewBox="0 0 48 48" fill="none" xmlns="http://www.w3.org/2000/svg" style="margin-top: -2px;"><path data-v-211cc331="" d="M26.36 11h.008c8.471 0 15.36 6.892 15.36 15.364 0 8.471-6.89 15.363-15.36 15.363a15.24 15.24 0 0 1-8.45-2.537l-5.906 1.887 1.913-5.709A15.252 15.252 0 0 1 11 26.364C11 17.892 17.89 11 26.36 11zm-4.395 8.445c-.294-.7-.516-.727-.96-.745a8.664 8.664 0 0 0-.508-.018c-.578 0-1.183.169-1.549.541-.442.452-1.547 1.507-1.547 3.675 0 2.165 1.584 4.26 1.797 4.553.223.291 3.088 4.8 7.534 6.638 3.479 1.438 4.51 1.305 5.303 1.136 1.157-.249 2.606-1.101 2.97-2.13.366-1.03.366-1.909.26-2.095-.108-.186-.401-.292-.846-.515-.445-.222-2.606-1.287-3.016-1.429-.4-.15-.782-.097-1.084.33-.428.593-.845 1.198-1.185 1.561-.266.284-.703.32-1.066.17-.49-.206-1.86-.685-3.55-2.185-1.308-1.163-2.198-2.61-2.455-3.043-.258-.445-.027-.702.178-.941.222-.276.435-.47.658-.728.223-.257.346-.39.49-.692.15-.293.044-.596-.063-.817-.107-.222-.997-2.388-1.361-3.265v-.001z" fill="#25D366"></path><path data-v-211cc331="" d="M21.004 18.7c.444.018.667.045.96.745v.002c.365.877 1.255 3.043 1.361 3.264.108.222.214.524.063.817-.143.302-.266.435-.489.693-.223.257-.437.452-.658.727-.205.24-.437.497-.178.941.257.434 1.147 1.88 2.454 3.043 1.692 1.5 3.061 1.98 3.55 2.184.364.151.8.116 1.067-.169.34-.363.757-.967 1.184-1.561.302-.427.684-.48 1.085-.33.41.142 2.57 1.208 3.016 1.43.444.222.738.328.845.514.106.187.106 1.065-.259 2.096-.364 1.028-1.814 1.88-2.97 2.129-.792.169-1.824.302-5.303-1.136-4.446-1.837-7.312-6.346-7.534-6.638-.213-.293-1.797-2.388-1.797-4.553 0-2.167 1.105-3.222 1.547-3.674.366-.373.97-.542 1.55-.542.168.001.337.007.506.018z" fill="#fff"></path></svg>