<svg width="143" height="85" viewBox="0 0 143 85" fill="none" xmlns="http://www.w3.org/2000/svg">
<g clip-path="url(#clip0_2_10)">
<path d="M13.1993 0H128.965C136.291 0 142.222 5.93075 142.222 13.257V57.4469C142.222 64.7731 136.291 70.7039 128.965 70.7039H87.45L93.1481 84.6586L68.0878 70.7039H13.2574C5.93118 70.7039 0.00042391 64.7731 0.00042391 57.4469V13.257C-0.0577207 5.9889 5.87303 0 13.1993 0Z" fill="#9B5C8F"/>
<path d="M8.09887 12.083C8.90826 10.9846 10.1224 10.4064 11.7411 10.2908C14.6897 10.0595 16.3663 11.4471 16.771 14.4534C18.5632 26.5365 20.5289 36.7696 22.6102 45.1526L35.2714 21.0442C36.4277 18.8473 37.873 17.691 39.6074 17.5753C42.1513 17.4019 43.7122 19.0207 44.3482 22.4317C45.7935 30.121 47.6436 36.6539 49.8405 42.2041C51.3437 27.5193 53.8875 16.9394 57.4719 10.4064C58.3392 8.78764 59.6111 7.97824 61.2877 7.86261C62.6174 7.74699 63.8315 8.15168 64.9299 9.01889C66.0284 9.8861 66.6065 10.9846 66.7222 12.3143C66.78 13.3549 66.6065 14.2221 66.144 15.0894C63.8893 19.252 62.0392 26.2474 60.5361 35.9602C59.0907 45.3838 58.5704 52.7262 58.9173 57.9873C59.0329 59.4326 58.8017 60.7045 58.2235 61.803C57.5298 63.0749 56.4891 63.7687 55.1594 63.8843C53.6562 63.9999 52.0953 63.3062 50.5921 61.7452C45.2154 56.2529 40.9372 48.0433 37.8152 37.1164C34.0573 44.5166 31.2822 50.0668 29.49 53.7669C26.079 60.2998 23.1883 63.653 20.7601 63.8265C19.1991 63.9421 17.8694 62.6124 16.7131 59.8373C13.7646 52.2637 10.5849 37.6368 7.17385 15.9566C6.94259 14.4534 7.28947 13.1237 8.09887 12.083ZM132.341 21.1598C130.26 17.5175 127.196 15.3206 123.091 14.4534C121.992 14.2221 120.952 14.1065 119.969 14.1065C114.419 14.1065 109.909 16.9972 106.383 22.7786C103.376 27.6928 101.873 33.1273 101.873 39.0821C101.873 43.5338 102.798 47.3495 104.648 50.5293C106.729 54.1716 109.794 56.3685 113.898 57.2357C114.997 57.4669 116.037 57.5826 117.02 57.5826C122.628 57.5826 127.138 54.6919 130.607 48.9105C133.613 43.9385 135.116 38.504 135.116 32.5492C135.174 28.0397 134.191 24.2818 132.341 21.1598ZM125.056 37.1743C124.247 40.99 122.802 43.8229 120.663 45.7307C118.986 47.2339 117.425 47.8698 115.98 47.5808C114.592 47.2917 113.436 46.0776 112.569 43.8229C111.875 42.0306 111.528 40.2384 111.528 38.5618C111.528 37.1165 111.644 35.6711 111.933 34.3414C112.453 31.971 113.436 29.6585 114.997 27.4615C116.905 24.6286 118.928 23.4724 121.009 23.8771C122.397 24.1661 123.553 25.3802 124.42 27.635C125.114 29.4272 125.461 31.2194 125.461 32.896C125.461 34.3992 125.345 35.8445 125.056 37.1743ZM96.1495 21.1598C94.0682 17.5175 90.9462 15.3206 86.8992 14.4534C85.8008 14.2221 84.7601 14.1065 83.7773 14.1065C78.2271 14.1065 73.7177 16.9972 70.191 22.7786C67.1847 27.6928 65.6815 33.1273 65.6815 39.0821C65.6815 43.5338 66.6065 47.3495 68.4566 50.5293C70.5379 54.1716 73.602 56.3685 77.7068 57.2357C78.8053 57.4669 79.8459 57.5826 80.8288 57.5826C86.4367 57.5826 90.9462 54.6919 94.415 48.9105C97.4214 43.9385 98.9245 38.504 98.9245 32.5492C98.9245 28.0397 97.9995 24.2818 96.1495 21.1598ZM88.8071 37.1743C87.9977 40.99 86.5523 43.8229 84.4132 45.7307C82.7366 47.2339 81.1757 47.8698 79.7303 47.5808C78.3428 47.2917 77.1865 46.0776 76.3193 43.8229C75.6255 42.0306 75.2786 40.2384 75.2786 38.5618C75.2786 37.1165 75.3943 35.6711 75.6833 34.3414C76.2037 31.971 77.1865 29.6585 78.7475 27.4615C80.6553 24.6286 82.6788 23.4724 84.7601 23.8771C86.1476 24.1661 87.3039 25.3802 88.1711 27.635C88.8649 29.4272 89.2118 31.2194 89.2118 32.896C89.2696 34.3992 89.0962 35.8445 88.8071 37.1743Z" fill="white"/>
</g>
<defs>
<clipPath id="clip0_2_10">
<rect width="142.222" height="85" fill="white"/>
</clipPath>
</defs>
</svg>
