<svg width="85" height="85" viewBox="0 0 85 85" fill="none" xmlns="http://www.w3.org/2000/svg">
<g clip-path="url(#clip0_2_14)">
<path d="M42.5017 85C18.9491 85 -0.175921 66.2286 0.00171579 42.5C0.179353 18.7714 18.0642 0 42.5017 0C66.9409 0 85.0017 19.125 85.0017 42.5C85.0017 65.875 66.0544 85 42.5017 85ZM55.0741 78.4473L43.033 46.0411L31.6991 79.1562C40.0231 81.1053 45.6892 81.6348 55.0741 78.4473ZM25.6794 76.6776L7.61686 27.2714C5.13658 32.5839 4.60699 37.0115 4.25172 42.5C4.42935 57.0197 12.5741 70.301 25.6794 76.6776V76.6776ZM80.5757 42.5C80.7517 33.1151 76.5034 25.6776 76.1481 24.6151C76.5034 31.8767 75.4392 35.5937 74.2008 39.6678L61.8044 75.2615C77.3882 65.875 80.3965 51.8849 80.7517 42.5H80.5757ZM41.2632 40.9062L35.2419 24.4375L30.8142 24.0839C29.0445 22.8437 30.1053 20.8964 31.3455 20.8964C39.3142 21.4276 43.7402 21.4276 51.7106 20.8964C53.6596 20.8964 54.1892 23.7303 51.8866 24.0839L47.6366 24.4375L61.4474 65.1661L67.9984 42.8536C68.3537 33.1151 65.6958 32.0526 62.1547 24.9687C59.3208 19.4786 62.3323 14.1661 67.8224 13.9901C63.3931 9.74013 54.3635 4.42764 42.4984 4.25C30.6333 4.07236 18.0609 10.0937 10.6234 21.4276L23.7287 21.074C25.3224 21.7829 24.6135 24.0839 23.7287 24.2615L19.1251 24.6151L32.9376 66.0526L41.2632 40.9062V40.9062Z" fill="#21759B"/>
</g>
<defs>
<clipPath id="clip0_2_14">
<rect width="85" height="85" fill="white"/>
</clipPath>
</defs>
</svg>
