<svg width="107" height="85" viewBox="0 0 107 85" fill="none" xmlns="http://www.w3.org/2000/svg">
<g clip-path="url(#clip0_1_49)">
<path d="M16.3919 58.6047L10.8292 60.6372L10.5332 77.1839L29.7883 70.1499C23.1785 67.9363 18.3581 64.0349 16.3919 58.6047" fill="#FDBD39"/>
<path d="M19.3037 41.1038L0 48.1554L10.8293 60.6417L16.392 58.6092C14.4303 53.1968 15.6409 47.0862 19.3037 41.1038Z" fill="#F69833"/>
<path d="M51.783 17.2226C27.2037 26.2007 11.3552 44.7312 16.3921 58.6047L105.399 26.0902C100.363 12.2166 76.3622 8.24457 51.783 17.2226" fill="#FECF33"/>
<path d="M70.0043 67.4769C94.5836 58.4988 110.459 40.0523 105.395 26.0947L16.3877 58.6049C21.4511 72.5668 45.4251 76.4549 70.0043 67.4769Z" fill="#EE6723"/>
<path d="M105.395 26.0903L16.3921 58.6049C18.1329 63.412 24.7825 65.7803 34.1052 65.7803C43.1982 65.7803 54.8361 63.5313 66.9688 59.0997C91.548 50.1217 108.837 35.5809 105.395 26.0903" fill="#F69833"/>
<path d="M87.6821 18.9194C78.5935 18.9194 66.9512 21.1684 54.8185 25.6C30.2392 34.578 12.9503 49.1144 16.3922 58.605L105.4 26.0904C103.654 21.2832 97.0092 18.9194 87.6821 18.9194" fill="#FDBD39"/>
<path d="M82.7641 78.0632C80.144 78.0632 76.2824 75.6994 71.2809 71.0336C65.3647 65.5151 58.5914 57.4296 52.1981 48.2703C45.8092 39.1111 40.5602 29.9563 37.4144 22.4849C33.9902 14.3463 33.4997 9.34479 35.9607 7.6128C36.5307 7.22398 37.2067 7.02516 37.896 7.04283C39.8975 7.04283 43.8033 8.53181 51.0184 15.6365L51.1775 15.7911L51.1554 16.0121C51.1068 16.5246 51.0626 17.0371 51.0228 17.5452L50.9433 18.5482L50.2364 17.8368C42.4601 10.0031 39.0403 9.15922 37.9269 9.15922C37.6088 9.15922 37.3569 9.22107 37.1758 9.3492C36.1066 10.1003 36.0359 13.7764 39.3584 21.6631C42.4469 28.9976 47.6207 38.0154 53.9257 47.0553C60.235 56.0996 66.9067 64.0615 72.7212 69.4828C78.9864 75.3282 81.8097 75.9601 82.7332 75.9601C83.0513 75.9601 83.3076 75.8938 83.502 75.7568C84.6286 74.9659 84.6286 71.0292 80.9261 62.5372L80.7538 62.1483L81.1249 61.9451C81.496 61.7419 81.8583 61.543 82.1941 61.3486L82.6404 61.0968L82.848 61.5651C85.4725 67.5829 87.9291 75.231 84.7082 77.4932C84.1382 77.882 83.4578 78.0809 82.7641 78.0632ZM82.7641 77.1353V77.5993V77.1353Z" fill="#EE6723"/>
<path d="M70.6002 67.2206L70.5649 67.6801C69.9419 75.368 68.3071 84.6112 64.039 84.9867C63.9507 84.9956 63.8623 84.9956 63.7783 84.9956C60.8799 84.9956 58.1361 80.8423 55.6309 72.6552C53.2539 64.9054 51.4114 54.5046 50.4438 43.366C49.4718 32.2274 49.485 21.6631 50.4836 13.6173C51.5705 4.85136 53.6383 0.273961 56.6339 0.00886048C56.7223 2.38065e-05 56.8151 -0.00439453 56.9034 -0.00439453C59.0065 -0.00439453 62.1745 2.37709 65.4175 13.4671L63.3012 13.8736C62.2187 10.171 61.039 7.15773 59.8681 5.08111C58.7856 3.16797 57.7296 2.11199 56.9034 2.11199C56.8769 2.11199 56.8504 2.11199 56.8195 2.11641C55.5205 2.23128 53.6294 5.37714 52.5779 13.878C51.597 21.778 51.5838 32.1876 52.5425 43.1804C53.5013 54.1777 55.3128 64.4238 57.6457 72.0322C58.6884 75.4387 59.8328 78.2488 60.9594 80.1531C61.9933 81.9116 62.9963 82.8792 63.7783 82.8792C63.8048 82.8792 63.8314 82.8792 63.8579 82.8748C65.0994 82.7687 67.4411 79.4903 68.4264 67.9629L70.6002 67.2206Z" fill="#EE6723"/>
</g>
<defs>
<clipPath id="clip0_1_49">
<rect width="106.341" height="85" fill="white"/>
</clipPath>
</defs>
</svg>
